<svg width="500" height="26" viewBox="0 0 500 26" fill="none" xmlns="http://www.w3.org/2000/svg">
<path d="M7.19318 25L0.625 1.72727H5.15909L9.35227 18.8295H9.56818L14.0455 1.72727H18.1705L22.6591 18.8409H22.8636L27.0568 1.72727H31.5909L25.0227 25H20.8636L16.2045 8.67045H16.0227L11.3523 25H7.19318ZM38.446 14.7727V25H34.3324V1.72727H38.3551V10.5114H38.5597C38.9688 9.52651 39.6013 8.75 40.4574 8.18182C41.321 7.60606 42.4195 7.31818 43.7528 7.31818C44.965 7.31818 46.0218 7.57197 46.9233 8.07954C47.8248 8.58712 48.5218 9.32954 49.0142 10.3068C49.5142 11.2841 49.7642 12.4773 49.7642 13.8864V25H45.6506V14.5227C45.6506 13.3485 45.3475 12.4356 44.7415 11.7841C44.143 11.125 43.3021 10.7955 42.2188 10.7955C41.4915 10.7955 40.84 10.9545 40.2642 11.2727C39.696 11.5833 39.2491 12.0341 38.9233 12.625C38.6051 13.2159 38.446 13.9318 38.446 14.7727ZM58.9801 25.3523C57.8741 25.3523 56.8778 25.1553 55.9915 24.7614C55.1127 24.3598 54.4157 23.7689 53.9006 22.9886C53.393 22.2083 53.1392 21.2462 53.1392 20.1023C53.1392 19.1174 53.321 18.303 53.6847 17.6591C54.0483 17.0152 54.5445 16.5 55.1733 16.1136C55.8021 15.7273 56.5104 15.4356 57.2983 15.2386C58.0938 15.0341 58.9157 14.8864 59.7642 14.7955C60.7869 14.6894 61.6165 14.5947 62.2528 14.5114C62.8892 14.4205 63.3513 14.2841 63.6392 14.1023C63.9347 13.9129 64.0824 13.6212 64.0824 13.2273V13.1591C64.0824 12.303 63.8286 11.6402 63.321 11.1705C62.8134 10.7008 62.0824 10.4659 61.1278 10.4659C60.1203 10.4659 59.321 10.6856 58.7301 11.125C58.1468 11.5644 57.7528 12.0833 57.5483 12.6818L53.7074 12.1364C54.0104 11.0758 54.5104 10.1894 55.2074 9.47727C55.9044 8.75757 56.7566 8.2197 57.7642 7.86364C58.7718 7.5 59.8854 7.31818 61.1051 7.31818C61.946 7.31818 62.7831 7.41667 63.6165 7.61364C64.4498 7.81061 65.2112 8.13636 65.9006 8.59091C66.59 9.03788 67.143 9.64773 67.5597 10.4205C67.9839 11.1932 68.196 12.1591 68.196 13.3182V25H64.2415V22.6023H64.1051C63.8551 23.0871 63.5028 23.5417 63.0483 23.9659C62.6013 24.3826 62.0369 24.7197 61.3551 24.9773C60.6809 25.2273 59.8892 25.3523 58.9801 25.3523ZM60.0483 22.3295C60.8741 22.3295 61.59 22.1667 62.196 21.8409C62.8021 21.5076 63.268 21.0682 63.5938 20.5227C63.9271 19.9773 64.0938 19.3826 64.0938 18.7386V16.6818C63.965 16.7879 63.7453 16.8864 63.4347 16.9773C63.1316 17.0682 62.7907 17.1477 62.4119 17.2159C62.0331 17.2841 61.6581 17.3447 61.2869 17.3977C60.9157 17.4508 60.5938 17.4962 60.321 17.5341C59.7074 17.6174 59.1581 17.7538 58.6733 17.9432C58.1884 18.1326 57.8059 18.3977 57.5256 18.7386C57.2453 19.072 57.1051 19.5038 57.1051 20.0341C57.1051 20.7917 57.3816 21.3636 57.9347 21.75C58.4877 22.1364 59.1922 22.3295 60.0483 22.3295ZM81.0483 7.54545V10.7273H71.0142V7.54545H81.0483ZM73.4915 3.36364H77.6051V19.75C77.6051 20.303 77.6884 20.7273 77.8551 21.0227C78.0294 21.3106 78.2566 21.5076 78.5369 21.6136C78.8172 21.7197 79.1278 21.7727 79.4688 21.7727C79.7263 21.7727 79.9612 21.7538 80.1733 21.7159C80.393 21.678 80.5597 21.6439 80.6733 21.6136L81.3665 24.8295C81.1468 24.9053 80.8324 24.9886 80.4233 25.0795C80.0218 25.1705 79.5294 25.2235 78.946 25.2386C77.9157 25.2689 76.9877 25.1136 76.1619 24.7727C75.3362 24.4242 74.6809 23.8864 74.196 23.1591C73.7188 22.4318 73.4839 21.5227 73.4915 20.4318V3.36364ZM92.608 1.72727H97.767L104.676 18.5909H104.949L111.858 1.72727H117.017V25H112.972V9.01136H112.756L106.324 24.9318H103.301L96.8693 8.97727H96.6534V25H92.608V1.72727ZM126.449 25.3523C125.343 25.3523 124.347 25.1553 123.46 24.7614C122.581 24.3598 121.884 23.7689 121.369 22.9886C120.862 22.2083 120.608 21.2462 120.608 20.1023C120.608 19.1174 120.79 18.303 121.153 17.6591C121.517 17.0152 122.013 16.5 122.642 16.1136C123.271 15.7273 123.979 15.4356 124.767 15.2386C125.563 15.0341 126.384 14.8864 127.233 14.7955C128.256 14.6894 129.085 14.5947 129.722 14.5114C130.358 14.4205 130.82 14.2841 131.108 14.1023C131.403 13.9129 131.551 13.6212 131.551 13.2273V13.1591C131.551 12.303 131.297 11.6402 130.79 11.1705C130.282 10.7008 129.551 10.4659 128.597 10.4659C127.589 10.4659 126.79 10.6856 126.199 11.125C125.616 11.5644 125.222 12.0833 125.017 12.6818L121.176 12.1364C121.479 11.0758 121.979 10.1894 122.676 9.47727C123.373 8.75757 124.225 8.2197 125.233 7.86364C126.241 7.5 127.354 7.31818 128.574 7.31818C129.415 7.31818 130.252 7.41667 131.085 7.61364C131.919 7.81061 132.68 8.13636 133.369 8.59091C134.059 9.03788 134.612 9.64773 135.028 10.4205C135.453 11.1932 135.665 12.1591 135.665 13.3182V25H131.71V22.6023H131.574C131.324 23.0871 130.972 23.5417 130.517 23.9659C130.07 24.3826 129.506 24.7197 128.824 24.9773C128.15 25.2273 127.358 25.3523 126.449 25.3523ZM127.517 22.3295C128.343 22.3295 129.059 22.1667 129.665 21.8409C130.271 21.5076 130.737 21.0682 131.062 20.5227C131.396 19.9773 131.562 19.3826 131.562 18.7386V16.6818C131.434 16.7879 131.214 16.8864 130.903 16.9773C130.6 17.0682 130.259 17.1477 129.881 17.2159C129.502 17.2841 129.127 17.3447 128.756 17.3977C128.384 17.4508 128.063 17.4962 127.79 17.5341C127.176 17.6174 126.627 17.7538 126.142 17.9432C125.657 18.1326 125.275 18.3977 124.994 18.7386C124.714 19.072 124.574 19.5038 124.574 20.0341C124.574 20.7917 124.85 21.3636 125.403 21.75C125.956 22.1364 126.661 22.3295 127.517 22.3295ZM143.551 19.5227L143.54 14.5568H144.199L150.472 7.54545H155.278L147.562 16.1364H146.71L143.551 19.5227ZM139.801 25V1.72727H143.915V25H139.801ZM150.756 25L145.074 17.0568L147.847 14.1591L155.676 25H150.756ZM165.028 25.3409C163.278 25.3409 161.767 24.9773 160.494 24.25C159.229 23.5152 158.256 22.4773 157.574 21.1364C156.892 19.7879 156.551 18.2008 156.551 16.375C156.551 14.5795 156.892 13.0038 157.574 11.6477C158.263 10.2841 159.225 9.22348 160.46 8.46591C161.695 7.70076 163.146 7.31818 164.812 7.31818C165.888 7.31818 166.903 7.49242 167.858 7.84091C168.82 8.18182 169.669 8.71212 170.403 9.43182C171.146 10.1515 171.729 11.0682 172.153 12.1818C172.578 13.2879 172.79 14.6061 172.79 16.1364V17.3977H158.483V14.625H168.847C168.839 13.8371 168.669 13.1364 168.335 12.5227C168.002 11.9015 167.536 11.4129 166.938 11.0568C166.347 10.7008 165.657 10.5227 164.869 10.5227C164.028 10.5227 163.29 10.7273 162.653 11.1364C162.017 11.5379 161.521 12.0682 161.165 12.7273C160.816 13.3788 160.638 14.0947 160.631 14.875V17.2955C160.631 18.3106 160.816 19.1818 161.188 19.9091C161.559 20.6288 162.078 21.1818 162.744 21.5682C163.411 21.947 164.191 22.1364 165.085 22.1364C165.684 22.1364 166.225 22.053 166.71 21.8864C167.195 21.7121 167.616 21.4583 167.972 21.125C168.328 20.7917 168.597 20.3788 168.778 19.8864L172.619 20.3182C172.377 21.3333 171.915 22.2197 171.233 22.9773C170.559 23.7273 169.695 24.3106 168.642 24.7273C167.589 25.1364 166.384 25.3409 165.028 25.3409ZM190.065 12.1591L186.315 12.5682C186.209 12.1894 186.024 11.8333 185.759 11.5C185.501 11.1667 185.152 10.8977 184.713 10.6932C184.274 10.4886 183.736 10.3864 183.099 10.3864C182.243 10.3864 181.524 10.572 180.94 10.9432C180.365 11.3144 180.08 11.7955 180.088 12.3864C180.08 12.8939 180.266 13.3068 180.645 13.625C181.031 13.9432 181.668 14.2045 182.554 14.4091L185.531 15.0455C187.183 15.4015 188.41 15.9659 189.213 16.7386C190.024 17.5114 190.433 18.5227 190.44 19.7727C190.433 20.8712 190.111 21.8409 189.474 22.6818C188.846 23.5152 187.971 24.1667 186.849 24.6364C185.728 25.1061 184.44 25.3409 182.986 25.3409C180.849 25.3409 179.13 24.8939 177.827 24C176.524 23.0985 175.747 21.8447 175.497 20.2386L179.509 19.8523C179.69 20.6402 180.077 21.2348 180.668 21.6364C181.259 22.0379 182.027 22.2386 182.974 22.2386C183.952 22.2386 184.736 22.0379 185.327 21.6364C185.925 21.2348 186.224 20.7386 186.224 20.1477C186.224 19.6477 186.031 19.2348 185.645 18.9091C185.266 18.5833 184.675 18.3333 183.872 18.1591L180.895 17.5341C179.221 17.1856 177.982 16.5985 177.179 15.7727C176.376 14.9394 175.978 13.8864 175.986 12.6136C175.978 11.5379 176.27 10.6061 176.861 9.81818C177.459 9.02273 178.289 8.40909 179.349 7.97727C180.418 7.53788 181.649 7.31818 183.043 7.31818C185.088 7.31818 186.698 7.75379 187.872 8.625C189.054 9.49621 189.785 10.6742 190.065 12.1591ZM222.747 13.3636C222.747 15.8712 222.277 18.0189 221.338 19.8068C220.406 21.5871 219.134 22.9508 217.52 23.8977C215.914 24.8447 214.092 25.3182 212.054 25.3182C210.016 25.3182 208.19 24.8447 206.577 23.8977C204.971 22.9432 203.698 21.5758 202.759 19.7955C201.827 18.0076 201.361 15.8636 201.361 13.3636C201.361 10.8561 201.827 8.71212 202.759 6.93182C203.698 5.14394 204.971 3.77651 206.577 2.82954C208.19 1.88257 210.016 1.40909 212.054 1.40909C214.092 1.40909 215.914 1.88257 217.52 2.82954C219.134 3.77651 220.406 5.14394 221.338 6.93182C222.277 8.71212 222.747 10.8561 222.747 13.3636ZM218.509 13.3636C218.509 11.5985 218.232 10.1098 217.679 8.89773C217.134 7.67803 216.376 6.75758 215.406 6.13636C214.437 5.50758 213.319 5.19318 212.054 5.19318C210.789 5.19318 209.671 5.50758 208.702 6.13636C207.732 6.75758 206.971 7.67803 206.418 8.89773C205.872 10.1098 205.599 11.5985 205.599 13.3636C205.599 15.1288 205.872 16.6212 206.418 17.8409C206.971 19.053 207.732 19.9735 208.702 20.6023C209.671 21.2235 210.789 21.5341 212.054 21.5341C213.319 21.5341 214.437 21.2235 215.406 20.6023C216.376 19.9735 217.134 19.053 217.679 17.8409C218.232 16.6212 218.509 15.1288 218.509 13.3636ZM237.676 17.6591V7.54545H241.79V25H237.801V21.8977H237.619C237.225 22.875 236.578 23.6742 235.676 24.2955C234.782 24.9167 233.68 25.2273 232.369 25.2273C231.225 25.2273 230.214 24.9735 229.335 24.4659C228.464 23.9508 227.782 23.2045 227.29 22.2273C226.797 21.2424 226.551 20.053 226.551 18.6591V7.54545H230.665V18.0227C230.665 19.1288 230.968 20.0076 231.574 20.6591C232.18 21.3106 232.975 21.6364 233.96 21.6364C234.566 21.6364 235.153 21.4886 235.722 21.1932C236.29 20.8977 236.756 20.4583 237.119 19.875C237.491 19.2841 237.676 18.5455 237.676 17.6591ZM246.02 25V7.54545H250.009V10.4545H250.19C250.509 9.44697 251.054 8.67045 251.827 8.125C252.607 7.57197 253.497 7.29545 254.497 7.29545C254.724 7.29545 254.978 7.30682 255.259 7.32954C255.546 7.3447 255.785 7.37121 255.974 7.40909V11.1932C255.8 11.1326 255.524 11.0795 255.145 11.0341C254.774 10.9811 254.414 10.9545 254.065 10.9545C253.315 10.9545 252.641 11.1174 252.043 11.4432C251.452 11.7614 250.986 12.2045 250.645 12.7727C250.304 13.3409 250.134 13.9962 250.134 14.7386V25H246.02ZM266.827 25V1.72727H275.736C277.418 1.72727 278.815 1.99242 279.929 2.52273C281.05 3.04545 281.887 3.76136 282.44 4.67045C283.001 5.57954 283.281 6.60985 283.281 7.76136C283.281 8.70833 283.099 9.51894 282.736 10.1932C282.372 10.8598 281.884 11.4015 281.27 11.8182C280.656 12.2348 279.971 12.5341 279.213 12.7159V12.9432C280.039 12.9886 280.83 13.2424 281.588 13.7045C282.353 14.1591 282.978 14.803 283.463 15.6364C283.948 16.4697 284.19 17.4773 284.19 18.6591C284.19 19.8636 283.899 20.947 283.315 21.9091C282.732 22.8636 281.853 23.6174 280.679 24.1705C279.505 24.7235 278.027 25 276.247 25H266.827ZM271.043 21.4773H275.577C277.107 21.4773 278.209 21.1856 278.884 20.6023C279.565 20.0114 279.906 19.2538 279.906 18.3295C279.906 17.6402 279.736 17.0189 279.395 16.4659C279.054 15.9053 278.569 15.4659 277.94 15.1477C277.312 14.822 276.562 14.6591 275.69 14.6591H271.043V21.4773ZM271.043 11.625H275.213C275.94 11.625 276.596 11.4924 277.179 11.2273C277.762 10.9545 278.221 10.572 278.554 10.0795C278.895 9.57955 279.065 8.98864 279.065 8.30682C279.065 7.4053 278.747 6.66288 278.111 6.07954C277.482 5.49621 276.546 5.20454 275.304 5.20454H271.043V11.625ZM287.676 25V7.54545H291.665V10.4545H291.847C292.165 9.44697 292.71 8.67045 293.483 8.125C294.263 7.57197 295.153 7.29545 296.153 7.29545C296.381 7.29545 296.634 7.30682 296.915 7.32954C297.203 7.3447 297.441 7.37121 297.631 7.40909V11.1932C297.456 11.1326 297.18 11.0795 296.801 11.0341C296.43 10.9811 296.07 10.9545 295.722 10.9545C294.972 10.9545 294.297 11.1174 293.699 11.4432C293.108 11.7614 292.642 12.2045 292.301 12.7727C291.96 13.3409 291.79 13.9962 291.79 14.7386V25H287.676ZM305.074 25.3523C303.968 25.3523 302.972 25.1553 302.085 24.7614C301.206 24.3598 300.509 23.7689 299.994 22.9886C299.487 22.2083 299.233 21.2462 299.233 20.1023C299.233 19.1174 299.415 18.303 299.778 17.6591C300.142 17.0152 300.638 16.5 301.267 16.1136C301.896 15.7273 302.604 15.4356 303.392 15.2386C304.188 15.0341 305.009 14.8864 305.858 14.7955C306.881 14.6894 307.71 14.5947 308.347 14.5114C308.983 14.4205 309.445 14.2841 309.733 14.1023C310.028 13.9129 310.176 13.6212 310.176 13.2273V13.1591C310.176 12.303 309.922 11.6402 309.415 11.1705C308.907 10.7008 308.176 10.4659 307.222 10.4659C306.214 10.4659 305.415 10.6856 304.824 11.125C304.241 11.5644 303.847 12.0833 303.642 12.6818L299.801 12.1364C300.104 11.0758 300.604 10.1894 301.301 9.47727C301.998 8.75757 302.85 8.2197 303.858 7.86364C304.866 7.5 305.979 7.31818 307.199 7.31818C308.04 7.31818 308.877 7.41667 309.71 7.61364C310.544 7.81061 311.305 8.13636 311.994 8.59091C312.684 9.03788 313.237 9.64773 313.653 10.4205C314.078 11.1932 314.29 12.1591 314.29 13.3182V25H310.335V22.6023H310.199C309.949 23.0871 309.597 23.5417 309.142 23.9659C308.695 24.3826 308.131 24.7197 307.449 24.9773C306.775 25.2273 305.983 25.3523 305.074 25.3523ZM306.142 22.3295C306.968 22.3295 307.684 22.1667 308.29 21.8409C308.896 21.5076 309.362 21.0682 309.688 20.5227C310.021 19.9773 310.188 19.3826 310.188 18.7386V16.6818C310.059 16.7879 309.839 16.8864 309.528 16.9773C309.225 17.0682 308.884 17.1477 308.506 17.2159C308.127 17.2841 307.752 17.3447 307.381 17.3977C307.009 17.4508 306.688 17.4962 306.415 17.5341C305.801 17.6174 305.252 17.7538 304.767 17.9432C304.282 18.1326 303.9 18.3977 303.619 18.7386C303.339 19.072 303.199 19.5038 303.199 20.0341C303.199 20.7917 303.475 21.3636 304.028 21.75C304.581 22.1364 305.286 22.3295 306.142 22.3295ZM322.54 14.7727V25H318.426V7.54545H322.358V10.5114H322.562C322.964 9.53409 323.604 8.75758 324.483 8.18182C325.369 7.60606 326.464 7.31818 327.767 7.31818C328.972 7.31818 330.021 7.57576 330.915 8.09091C331.816 8.60606 332.513 9.35227 333.006 10.3295C333.506 11.3068 333.752 12.4924 333.744 13.8864V25H329.631V14.5227C329.631 13.3561 329.328 12.4432 328.722 11.7841C328.123 11.125 327.294 10.7955 326.233 10.7955C325.513 10.7955 324.873 10.9545 324.312 11.2727C323.759 11.5833 323.324 12.0341 323.006 12.625C322.695 13.2159 322.54 13.9318 322.54 14.7727ZM344.403 25.3068C343.032 25.3068 341.805 24.9545 340.722 24.25C339.638 23.5455 338.782 22.5227 338.153 21.1818C337.525 19.8409 337.21 18.2121 337.21 16.2955C337.21 14.3561 337.528 12.7197 338.165 11.3864C338.809 10.0455 339.676 9.03409 340.767 8.35227C341.858 7.66288 343.074 7.31818 344.415 7.31818C345.438 7.31818 346.278 7.49242 346.938 7.84091C347.597 8.18182 348.119 8.5947 348.506 9.07955C348.892 9.55682 349.191 10.0076 349.403 10.4318H349.574V1.72727H353.699V25H349.653V22.25H349.403C349.191 22.6742 348.884 23.125 348.483 23.6023C348.081 24.072 347.551 24.4735 346.892 24.8068C346.233 25.1402 345.403 25.3068 344.403 25.3068ZM345.551 21.9318C346.422 21.9318 347.165 21.697 347.778 21.2273C348.392 20.75 348.858 20.0871 349.176 19.2386C349.494 18.3902 349.653 17.4015 349.653 16.2727C349.653 15.1439 349.494 14.1629 349.176 13.3295C348.866 12.4962 348.403 11.8485 347.79 11.3864C347.184 10.9242 346.438 10.6932 345.551 10.6932C344.634 10.6932 343.869 10.9318 343.256 11.4091C342.642 11.8864 342.18 12.5455 341.869 13.3864C341.559 14.2273 341.403 15.1894 341.403 16.2727C341.403 17.3636 341.559 18.3371 341.869 19.1932C342.188 20.0417 342.653 20.7121 343.267 21.2045C343.888 21.6894 344.65 21.9318 345.551 21.9318ZM374.088 25H366.202V1.72727H374.247C376.558 1.72727 378.543 2.19318 380.202 3.125C381.868 4.04924 383.149 5.37879 384.043 7.11364C384.937 8.84848 385.384 10.9242 385.384 13.3409C385.384 15.7652 384.933 17.8485 384.031 19.5909C383.137 21.3333 381.846 22.6705 380.156 23.6023C378.474 24.5341 376.452 25 374.088 25ZM370.418 21.3523H373.884C375.505 21.3523 376.857 21.0568 377.94 20.4659C379.024 19.8674 379.838 18.9773 380.384 17.7955C380.929 16.6061 381.202 15.1212 381.202 13.3409C381.202 11.5606 380.929 10.0833 380.384 8.90909C379.838 7.72727 379.031 6.8447 377.963 6.26136C376.902 5.67045 375.584 5.375 374.009 5.375H370.418V21.3523ZM389.207 25V7.54545H393.321V25H389.207ZM391.276 5.06818C390.624 5.06818 390.063 4.85227 389.594 4.42045C389.124 3.98106 388.889 3.45454 388.889 2.84091C388.889 2.2197 389.124 1.69318 389.594 1.26136C390.063 0.821969 390.624 0.602272 391.276 0.602272C391.935 0.602272 392.495 0.821969 392.957 1.26136C393.427 1.69318 393.662 2.2197 393.662 2.84091C393.662 3.45454 393.427 3.98106 392.957 4.42045C392.495 4.85227 391.935 5.06818 391.276 5.06818ZM406.392 7.54545V10.7273H396.074V7.54545H406.392ZM398.653 25V5.89773C398.653 4.72348 398.896 3.74621 399.381 2.96591C399.873 2.18561 400.532 1.60227 401.358 1.21591C402.184 0.829544 403.1 0.636362 404.108 0.636362C404.82 0.636362 405.453 0.693181 406.006 0.806818C406.559 0.920454 406.968 1.02273 407.233 1.11364L406.415 4.29545C406.241 4.24242 406.021 4.18939 405.756 4.13636C405.491 4.07576 405.195 4.04545 404.869 4.04545C404.104 4.04545 403.563 4.23106 403.244 4.60227C402.934 4.96591 402.778 5.48864 402.778 6.17045V25H398.653ZM418.455 7.54545V10.7273H408.136V7.54545H418.455ZM410.716 25V5.89773C410.716 4.72348 410.958 3.74621 411.443 2.96591C411.936 2.18561 412.595 1.60227 413.42 1.21591C414.246 0.829544 415.163 0.636362 416.17 0.636362C416.883 0.636362 417.515 0.693181 418.068 0.806818C418.621 0.920454 419.03 1.02273 419.295 1.11364L418.477 4.29545C418.303 4.24242 418.083 4.18939 417.818 4.13636C417.553 4.07576 417.258 4.04545 416.932 4.04545C416.167 4.04545 415.625 4.23106 415.307 4.60227C414.996 4.96591 414.841 5.48864 414.841 6.17045V25H410.716ZM428.747 25.3409C426.997 25.3409 425.486 24.9773 424.213 24.25C422.948 23.5152 421.974 22.4773 421.293 21.1364C420.611 19.7879 420.27 18.2008 420.27 16.375C420.27 14.5795 420.611 13.0038 421.293 11.6477C421.982 10.2841 422.944 9.22348 424.179 8.46591C425.414 7.70076 426.865 7.31818 428.531 7.31818C429.607 7.31818 430.622 7.49242 431.577 7.84091C432.539 8.18182 433.387 8.71212 434.122 9.43182C434.865 10.1515 435.448 11.0682 435.872 12.1818C436.296 13.2879 436.509 14.6061 436.509 16.1364V17.3977H422.202V14.625H432.565C432.558 13.8371 432.387 13.1364 432.054 12.5227C431.721 11.9015 431.255 11.4129 430.656 11.0568C430.065 10.7008 429.376 10.5227 428.588 10.5227C427.747 10.5227 427.009 10.7273 426.372 11.1364C425.736 11.5379 425.24 12.0682 424.884 12.7273C424.535 13.3788 424.357 14.0947 424.349 14.875V17.2955C424.349 18.3106 424.535 19.1818 424.906 19.9091C425.277 20.6288 425.796 21.1818 426.463 21.5682C427.13 21.947 427.91 22.1364 428.804 22.1364C429.402 22.1364 429.944 22.053 430.429 21.8864C430.914 21.7121 431.334 21.4583 431.69 21.125C432.046 20.7917 432.315 20.3788 432.497 19.8864L436.338 20.3182C436.096 21.3333 435.634 22.2197 434.952 22.9773C434.277 23.7273 433.414 24.3106 432.361 24.7273C431.308 25.1364 430.103 25.3409 428.747 25.3409ZM439.989 25V7.54545H443.977V10.4545H444.159C444.477 9.44697 445.023 8.67045 445.795 8.125C446.576 7.57197 447.466 7.29545 448.466 7.29545C448.693 7.29545 448.947 7.30682 449.227 7.32954C449.515 7.3447 449.754 7.37121 449.943 7.40909V11.1932C449.769 11.1326 449.492 11.0795 449.114 11.0341C448.742 10.9811 448.383 10.9545 448.034 10.9545C447.284 10.9545 446.61 11.1174 446.011 11.4432C445.42 11.7614 444.955 12.2045 444.614 12.7727C444.273 13.3409 444.102 13.9962 444.102 14.7386V25H439.989ZM459.685 25.3409C457.935 25.3409 456.423 24.9773 455.151 24.25C453.885 23.5152 452.912 22.4773 452.23 21.1364C451.548 19.7879 451.207 18.2008 451.207 16.375C451.207 14.5795 451.548 13.0038 452.23 11.6477C452.92 10.2841 453.882 9.22348 455.116 8.46591C456.351 7.70076 457.802 7.31818 459.469 7.31818C460.545 7.31818 461.56 7.49242 462.514 7.84091C463.476 8.18182 464.325 8.71212 465.06 9.43182C465.802 10.1515 466.385 11.0682 466.81 12.1818C467.234 13.2879 467.446 14.6061 467.446 16.1364V17.3977H453.139V14.625H463.503C463.495 13.8371 463.325 13.1364 462.991 12.5227C462.658 11.9015 462.192 11.4129 461.594 11.0568C461.003 10.7008 460.313 10.5227 459.526 10.5227C458.685 10.5227 457.946 10.7273 457.31 11.1364C456.673 11.5379 456.177 12.0682 455.821 12.7273C455.473 13.3788 455.295 14.0947 455.287 14.875V17.2955C455.287 18.3106 455.473 19.1818 455.844 19.9091C456.215 20.6288 456.734 21.1818 457.401 21.5682C458.067 21.947 458.848 22.1364 459.741 22.1364C460.34 22.1364 460.882 22.053 461.366 21.8864C461.851 21.7121 462.272 21.4583 462.628 21.125C462.984 20.7917 463.253 20.3788 463.435 19.8864L467.276 20.3182C467.033 21.3333 466.571 22.2197 465.889 22.9773C465.215 23.7273 464.351 24.3106 463.298 24.7273C462.245 25.1364 461.041 25.3409 459.685 25.3409ZM475.04 14.7727V25H470.926V7.54545H474.858V10.5114H475.062C475.464 9.53409 476.104 8.75758 476.983 8.18182C477.869 7.60606 478.964 7.31818 480.267 7.31818C481.472 7.31818 482.521 7.57576 483.415 8.09091C484.316 8.60606 485.013 9.35227 485.506 10.3295C486.006 11.3068 486.252 12.4924 486.244 13.8864V25H482.131V14.5227C482.131 13.3561 481.828 12.4432 481.222 11.7841C480.623 11.125 479.794 10.7955 478.733 10.7955C478.013 10.7955 477.373 10.9545 476.812 11.2727C476.259 11.5833 475.824 12.0341 475.506 12.625C475.195 13.2159 475.04 13.9318 475.04 14.7727ZM499.142 7.54545V10.7273H489.108V7.54545H499.142ZM491.585 3.36364H495.699V19.75C495.699 20.303 495.782 20.7273 495.949 21.0227C496.123 21.3106 496.35 21.5076 496.631 21.6136C496.911 21.7197 497.222 21.7727 497.562 21.7727C497.82 21.7727 498.055 21.7538 498.267 21.7159C498.487 21.678 498.653 21.6439 498.767 21.6136L499.46 24.8295C499.241 24.9053 498.926 24.9886 498.517 25.0795C498.116 25.1705 497.623 25.2235 497.04 25.2386C496.009 25.2689 495.081 25.1136 494.256 24.7727C493.43 24.4242 492.775 23.8864 492.29 23.1591C491.813 22.4318 491.578 21.5227 491.585 20.4318V3.36364Z" fill="#272343"/>
</svg>
