<svg width="771" height="101" viewBox="0 0 771 101" fill="none" xmlns="http://www.w3.org/2000/svg">
<path d="M1.62003 95V83.3636H3.02912V93.75H8.43821V95H1.62003ZM13.9837 95.1818C13.1958 95.1818 12.5045 94.9943 11.9098 94.6193C11.3189 94.2443 10.8568 93.7197 10.5234 93.0455C10.1939 92.3712 10.0291 91.5833 10.0291 90.6818C10.0291 89.7727 10.1939 88.9792 10.5234 88.3011C10.8568 87.6231 11.3189 87.0966 11.9098 86.7216C12.5045 86.3466 13.1958 86.1591 13.9837 86.1591C14.7715 86.1591 15.4609 86.3466 16.0518 86.7216C16.6465 87.0966 17.1087 87.6231 17.4382 88.3011C17.7715 88.9792 17.9382 89.7727 17.9382 90.6818C17.9382 91.5833 17.7715 92.3712 17.4382 93.0455C17.1087 93.7197 16.6465 94.2443 16.0518 94.6193C15.4609 94.9943 14.7715 95.1818 13.9837 95.1818ZM13.9837 93.9773C14.5821 93.9773 15.0746 93.8239 15.4609 93.517C15.8473 93.2102 16.1333 92.8068 16.3189 92.3068C16.5045 91.8068 16.5973 91.2652 16.5973 90.6818C16.5973 90.0985 16.5045 89.5549 16.3189 89.0511C16.1333 88.5473 15.8473 88.1402 15.4609 87.8295C15.0746 87.5189 14.5821 87.3636 13.9837 87.3636C13.3852 87.3636 12.8928 87.5189 12.5064 87.8295C12.12 88.1402 11.834 88.5473 11.6484 89.0511C11.4628 89.5549 11.37 90.0985 11.37 90.6818C11.37 91.2652 11.4628 91.8068 11.6484 92.3068C11.834 92.8068 12.12 93.2102 12.5064 93.517C12.8928 93.8239 13.3852 93.9773 13.9837 93.9773ZM19.9851 95V86.2727H21.2805V87.5909H21.3714C21.5305 87.1591 21.8184 86.8087 22.2351 86.5398C22.6518 86.2708 23.1214 86.1364 23.6442 86.1364C23.7427 86.1364 23.8658 86.1383 24.0135 86.142C24.1612 86.1458 24.273 86.1515 24.3487 86.1591V87.5227C24.3033 87.5114 24.1991 87.4943 24.0362 87.4716C23.8771 87.4451 23.7086 87.4318 23.5305 87.4318C23.1063 87.4318 22.7275 87.5208 22.3942 87.6989C22.0646 87.8731 21.8033 88.1155 21.6101 88.4261C21.4207 88.733 21.326 89.0833 21.326 89.4773V95H19.9851ZM29.3317 95.1818C28.4908 95.1818 27.7654 94.9962 27.1555 94.625C26.5495 94.25 26.0817 93.7273 25.7521 93.0568C25.4264 92.3826 25.2635 91.5985 25.2635 90.7045C25.2635 89.8106 25.4264 89.0227 25.7521 88.3409C26.0817 87.6553 26.54 87.1212 27.1271 86.7386C27.718 86.3523 28.4074 86.1591 29.1953 86.1591C29.6499 86.1591 30.0987 86.2348 30.5419 86.3864C30.9851 86.5379 31.3885 86.7841 31.7521 87.125C32.1158 87.4621 32.4055 87.9091 32.6214 88.4659C32.8374 89.0227 32.9453 89.7083 32.9453 90.5227V91.0909H26.218V89.9318H31.5817C31.5817 89.4394 31.4832 89 31.2862 88.6136C31.093 88.2273 30.8165 87.9223 30.4567 87.6989C30.1006 87.4754 29.6802 87.3636 29.1953 87.3636C28.6612 87.3636 28.1991 87.4962 27.8089 87.7614C27.4226 88.0227 27.1252 88.3636 26.9169 88.7841C26.7086 89.2045 26.6044 89.6553 26.6044 90.1364V90.9091C26.6044 91.5682 26.718 92.1269 26.9453 92.5852C27.1764 93.0398 27.4964 93.3864 27.9055 93.625C28.3146 93.8598 28.79 93.9773 29.3317 93.9773C29.6839 93.9773 30.0021 93.928 30.2862 93.8295C30.5741 93.7273 30.8222 93.5758 31.0305 93.375C31.2389 93.1705 31.3999 92.9167 31.5135 92.6136L32.8089 92.9773C32.6726 93.4167 32.4434 93.803 32.1214 94.1364C31.7995 94.4659 31.4018 94.7235 30.9283 94.9091C30.4548 95.0909 29.9226 95.1818 29.3317 95.1818ZM34.9851 95V86.2727H36.2805V87.6364H36.3942C36.576 87.1705 36.8696 86.8087 37.2749 86.5511C37.6802 86.2898 38.1669 86.1591 38.7351 86.1591C39.3108 86.1591 39.79 86.2898 40.1726 86.5511C40.5589 86.8087 40.8601 87.1705 41.076 87.6364H41.1669C41.3904 87.1856 41.7256 86.8277 42.1726 86.5625C42.6196 86.2936 43.1555 86.1591 43.7805 86.1591C44.5608 86.1591 45.1991 86.4034 45.6953 86.892C46.1915 87.3769 46.4396 88.1326 46.4396 89.1591V95H45.0987V89.1591C45.0987 88.5152 44.9226 88.0549 44.5703 87.7784C44.218 87.5019 43.8033 87.3636 43.326 87.3636C42.7124 87.3636 42.237 87.5492 41.8999 87.9205C41.5627 88.2879 41.3942 88.7538 41.3942 89.3182V95H40.0305V89.0227C40.0305 88.5265 39.8696 88.1269 39.5476 87.8239C39.2256 87.517 38.8108 87.3636 38.3033 87.3636C37.9548 87.3636 37.629 87.4564 37.326 87.642C37.0268 87.8277 36.7843 88.0852 36.5987 88.4148C36.4169 88.7405 36.326 89.1174 36.326 89.5455V95H34.9851ZM54.9822 83.3636V95H53.5732V83.3636H54.9822ZM57.6257 98.2727V86.2727H58.9212V87.6591H59.0803C59.1787 87.5076 59.3151 87.3144 59.4893 87.0795C59.6674 86.8409 59.9212 86.6288 60.2507 86.4432C60.584 86.2538 61.0348 86.1591 61.603 86.1591C62.3378 86.1591 62.9856 86.3428 63.5462 86.7102C64.1068 87.0777 64.5443 87.5985 64.8587 88.2727C65.1731 88.947 65.3303 89.7424 65.3303 90.6591C65.3303 91.5833 65.1731 92.3845 64.8587 93.0625C64.5443 93.7367 64.1087 94.2595 63.5518 94.6307C62.995 94.9981 62.353 95.1818 61.6257 95.1818C61.0651 95.1818 60.6162 95.089 60.2791 94.9034C59.942 94.714 59.6825 94.5 59.5007 94.2614C59.3189 94.0189 59.1787 93.8182 59.0803 93.6591H58.9666V98.2727H57.6257ZM58.9439 90.6364C58.9439 91.2955 59.0405 91.8769 59.2337 92.3807C59.4268 92.8807 59.709 93.2727 60.0803 93.5568C60.4515 93.8371 60.906 93.9773 61.4439 93.9773C62.0045 93.9773 62.4723 93.8295 62.8473 93.5341C63.2261 93.2348 63.5102 92.8333 63.6996 92.3295C63.8928 91.822 63.9893 91.2576 63.9893 90.6364C63.9893 90.0227 63.8946 89.4697 63.7053 88.9773C63.5196 88.4811 63.2375 88.089 62.8587 87.8011C62.4837 87.5095 62.0121 87.3636 61.4439 87.3636C60.8984 87.3636 60.4401 87.5019 60.0689 87.7784C59.6977 88.0511 59.4174 88.4337 59.228 88.9261C59.0386 89.4148 58.9439 89.9848 58.9439 90.6364ZM73.5575 88.2273L72.353 88.5682C72.2772 88.3674 72.1655 88.1723 72.0178 87.983C71.8738 87.7898 71.6768 87.6307 71.4268 87.5057C71.1768 87.3807 70.8568 87.3182 70.4666 87.3182C69.9325 87.3182 69.4875 87.4413 69.1314 87.6875C68.7791 87.9299 68.603 88.2386 68.603 88.6136C68.603 88.947 68.7242 89.2102 68.9666 89.4034C69.209 89.5966 69.5878 89.7576 70.103 89.8864L71.3984 90.2045C72.1787 90.3939 72.7602 90.6837 73.1428 91.0739C73.5253 91.4602 73.7166 91.9583 73.7166 92.5682C73.7166 93.0682 73.5727 93.5152 73.2848 93.9091C73.0007 94.303 72.603 94.6136 72.0916 94.8409C71.5803 95.0682 70.9856 95.1818 70.3075 95.1818C69.4174 95.1818 68.6806 94.9886 68.0973 94.6023C67.514 94.2159 67.1446 93.6515 66.9893 92.9091L68.2621 92.5909C68.3833 93.0606 68.6125 93.4129 68.9496 93.6477C69.2905 93.8826 69.7356 94 70.2848 94C70.9098 94 71.406 93.8674 71.7734 93.6023C72.1446 93.3333 72.3303 93.0114 72.3303 92.6364C72.3303 92.3333 72.2242 92.0795 72.0121 91.875C71.8 91.6667 71.4742 91.5114 71.0348 91.4091L69.5803 91.0682C68.781 90.8788 68.1939 90.5852 67.8189 90.1875C67.4477 89.786 67.2621 89.2841 67.2621 88.6818C67.2621 88.1894 67.4003 87.7538 67.6768 87.375C67.9571 86.9962 68.3378 86.6989 68.8189 86.483C69.3037 86.267 69.853 86.1591 70.4666 86.1591C71.3303 86.1591 72.0083 86.3485 72.5007 86.7273C72.9969 87.1061 73.3492 87.6061 73.5575 88.2273ZM81.2351 91.4318V86.2727H82.576V95H81.2351V93.5227H81.1442C80.9396 93.9659 80.6214 94.3428 80.1896 94.6534C79.7578 94.9602 79.2124 95.1136 78.5533 95.1136C78.0078 95.1136 77.523 94.9943 77.0987 94.7557C76.6745 94.5133 76.3411 94.1496 76.0987 93.6648C75.8563 93.1761 75.7351 92.5606 75.7351 91.8182V86.2727H77.076V91.7273C77.076 92.3636 77.254 92.8712 77.6101 93.25C77.9699 93.6288 78.4283 93.8182 78.9851 93.8182C79.3184 93.8182 79.6574 93.733 80.0021 93.5625C80.3506 93.392 80.6423 93.1307 80.8771 92.7784C81.1158 92.4261 81.2351 91.9773 81.2351 91.4318ZM85.032 95V86.2727H86.3274V87.6364H86.4411C86.6229 87.1705 86.9164 86.8087 87.3217 86.5511C87.727 86.2898 88.2138 86.1591 88.782 86.1591C89.3577 86.1591 89.8369 86.2898 90.2195 86.5511C90.6058 86.8087 90.907 87.1705 91.1229 87.6364H91.2138C91.4373 87.1856 91.7725 86.8277 92.2195 86.5625C92.6664 86.2936 93.2024 86.1591 93.8274 86.1591C94.6077 86.1591 95.246 86.4034 95.7422 86.892C96.2384 87.3769 96.4865 88.1326 96.4865 89.1591V95H95.1456V89.1591C95.1456 88.5152 94.9695 88.0549 94.6172 87.7784C94.2649 87.5019 93.8501 87.3636 93.3729 87.3636C92.7592 87.3636 92.2839 87.5492 91.9467 87.9205C91.6096 88.2879 91.4411 88.7538 91.4411 89.3182V95H90.0774V89.0227C90.0774 88.5265 89.9164 88.1269 89.5945 87.8239C89.2725 87.517 88.8577 87.3636 88.3501 87.3636C88.0017 87.3636 87.6759 87.4564 87.3729 87.642C87.0736 87.8277 86.8312 88.0852 86.6456 88.4148C86.4638 88.7405 86.3729 89.1174 86.3729 89.5455V95H85.032ZM103.438 95V86.2727H104.779V95H103.438ZM104.12 84.8182C103.859 84.8182 103.633 84.7292 103.444 84.5511C103.258 84.3731 103.165 84.1591 103.165 83.9091C103.165 83.6591 103.258 83.4451 103.444 83.267C103.633 83.089 103.859 83 104.12 83C104.381 83 104.605 83.089 104.79 83.267C104.98 83.4451 105.075 83.6591 105.075 83.9091C105.075 84.1591 104.98 84.3731 104.79 84.5511C104.605 84.7292 104.381 84.8182 104.12 84.8182ZM113.417 88.2273L112.212 88.5682C112.137 88.3674 112.025 88.1723 111.877 87.983C111.733 87.7898 111.536 87.6307 111.286 87.5057C111.036 87.3807 110.716 87.3182 110.326 87.3182C109.792 87.3182 109.347 87.4413 108.991 87.6875C108.638 87.9299 108.462 88.2386 108.462 88.6136C108.462 88.947 108.584 89.2102 108.826 89.4034C109.068 89.5966 109.447 89.7576 109.962 89.8864L111.258 90.2045C112.038 90.3939 112.62 90.6837 113.002 91.0739C113.385 91.4602 113.576 91.9583 113.576 92.5682C113.576 93.0682 113.432 93.5152 113.144 93.9091C112.86 94.303 112.462 94.6136 111.951 94.8409C111.44 95.0682 110.845 95.1818 110.167 95.1818C109.277 95.1818 108.54 94.9886 107.957 94.6023C107.373 94.2159 107.004 93.6515 106.849 92.9091L108.121 92.5909C108.243 93.0606 108.472 93.4129 108.809 93.6477C109.15 93.8826 109.595 94 110.144 94C110.769 94 111.265 93.8674 111.633 93.6023C112.004 93.3333 112.19 93.0114 112.19 92.6364C112.19 92.3333 112.084 92.0795 111.871 91.875C111.659 91.6667 111.334 91.5114 110.894 91.4091L109.44 91.0682C108.64 90.8788 108.053 90.5852 107.678 90.1875C107.307 89.786 107.121 89.2841 107.121 88.6818C107.121 88.1894 107.26 87.7538 107.536 87.375C107.817 86.9962 108.197 86.6989 108.678 86.483C109.163 86.267 109.712 86.1591 110.326 86.1591C111.19 86.1591 111.868 86.3485 112.36 86.7273C112.856 87.1061 113.209 87.6061 113.417 88.2273ZM126.276 88.2273L125.072 88.5682C124.996 88.3674 124.884 88.1723 124.737 87.983C124.593 87.7898 124.396 87.6307 124.146 87.5057C123.896 87.3807 123.576 87.3182 123.185 87.3182C122.651 87.3182 122.206 87.4413 121.85 87.6875C121.498 87.9299 121.322 88.2386 121.322 88.6136C121.322 88.947 121.443 89.2102 121.685 89.4034C121.928 89.5966 122.307 89.7576 122.822 89.8864L124.117 90.2045C124.897 90.3939 125.479 90.6837 125.862 91.0739C126.244 91.4602 126.435 91.9583 126.435 92.5682C126.435 93.0682 126.291 93.5152 126.004 93.9091C125.719 94.303 125.322 94.6136 124.81 94.8409C124.299 95.0682 123.704 95.1818 123.026 95.1818C122.136 95.1818 121.399 94.9886 120.816 94.6023C120.233 94.2159 119.863 93.6515 119.708 92.9091L120.981 92.5909C121.102 93.0606 121.331 93.4129 121.668 93.6477C122.009 93.8826 122.454 94 123.004 94C123.629 94 124.125 93.8674 124.492 93.6023C124.863 93.3333 125.049 93.0114 125.049 92.6364C125.049 92.3333 124.943 92.0795 124.731 91.875C124.519 91.6667 124.193 91.5114 123.754 91.4091L122.299 91.0682C121.5 90.8788 120.913 90.5852 120.538 90.1875C120.166 89.786 119.981 89.2841 119.981 88.6818C119.981 88.1894 120.119 87.7538 120.396 87.375C120.676 86.9962 121.057 86.6989 121.538 86.483C122.022 86.267 122.572 86.1591 123.185 86.1591C124.049 86.1591 124.727 86.3485 125.219 86.7273C125.716 87.1061 126.068 87.6061 126.276 88.2273ZM128.454 95V86.2727H129.795V95H128.454ZM129.136 84.8182C128.874 84.8182 128.649 84.7292 128.46 84.5511C128.274 84.3731 128.181 84.1591 128.181 83.9091C128.181 83.6591 128.274 83.4451 128.46 83.267C128.649 83.089 128.874 83 129.136 83C129.397 83 129.621 83.089 129.806 83.267C129.996 83.4451 130.09 83.6591 130.09 83.9091C130.09 84.1591 129.996 84.3731 129.806 84.5511C129.621 84.7292 129.397 84.8182 129.136 84.8182ZM132.251 95V86.2727H133.546V87.6364H133.66C133.842 87.1705 134.135 86.8087 134.54 86.5511C134.946 86.2898 135.433 86.1591 136.001 86.1591C136.576 86.1591 137.056 86.2898 137.438 86.5511C137.825 86.8087 138.126 87.1705 138.342 87.6364H138.433C138.656 87.1856 138.991 86.8277 139.438 86.5625C139.885 86.2936 140.421 86.1591 141.046 86.1591C141.826 86.1591 142.465 86.4034 142.961 86.892C143.457 87.3769 143.705 88.1326 143.705 89.1591V95H142.364V89.1591C142.364 88.5152 142.188 88.0549 141.836 87.7784C141.484 87.5019 141.069 87.3636 140.592 87.3636C139.978 87.3636 139.503 87.5492 139.165 87.9205C138.828 88.2879 138.66 88.7538 138.66 89.3182V95H137.296V89.0227C137.296 88.5265 137.135 88.1269 136.813 87.8239C136.491 87.517 136.076 87.3636 135.569 87.3636C135.22 87.3636 134.895 87.4564 134.592 87.642C134.292 87.8277 134.05 88.0852 133.864 88.4148C133.683 88.7405 133.592 89.1174 133.592 89.5455V95H132.251ZM146.157 98.2727V86.2727H147.452V87.6591H147.612C147.71 87.5076 147.846 87.3144 148.021 87.0795C148.199 86.8409 148.452 86.6288 148.782 86.4432C149.115 86.2538 149.566 86.1591 150.134 86.1591C150.869 86.1591 151.517 86.3428 152.077 86.7102C152.638 87.0777 153.076 87.5985 153.39 88.2727C153.704 88.947 153.862 89.7424 153.862 90.6591C153.862 91.5833 153.704 92.3845 153.39 93.0625C153.076 93.7367 152.64 94.2595 152.083 94.6307C151.526 94.9981 150.884 95.1818 150.157 95.1818C149.596 95.1818 149.147 95.089 148.81 94.9034C148.473 94.714 148.214 94.5 148.032 94.2614C147.85 94.0189 147.71 93.8182 147.612 93.6591H147.498V98.2727H146.157ZM147.475 90.6364C147.475 91.2955 147.572 91.8769 147.765 92.3807C147.958 92.8807 148.24 93.2727 148.612 93.5568C148.983 93.8371 149.437 93.9773 149.975 93.9773C150.536 93.9773 151.004 93.8295 151.379 93.5341C151.757 93.2348 152.041 92.8333 152.231 92.3295C152.424 91.822 152.521 91.2576 152.521 90.6364C152.521 90.0227 152.426 89.4697 152.237 88.9773C152.051 88.4811 151.769 88.089 151.39 87.8011C151.015 87.5095 150.543 87.3636 149.975 87.3636C149.43 87.3636 148.971 87.5019 148.6 87.7784C148.229 88.0511 147.949 88.4337 147.759 88.9261C147.57 89.4148 147.475 89.9848 147.475 90.6364ZM157.248 83.3636V95H155.907V83.3636H157.248ZM160.567 98.2727C160.34 98.2727 160.138 98.2538 159.96 98.2159C159.781 98.1818 159.658 98.1477 159.59 98.1136L159.931 96.9318C160.257 97.0152 160.545 97.0455 160.795 97.0227C161.045 97 161.266 96.8883 161.46 96.6875C161.656 96.4905 161.836 96.1705 161.999 95.7273L162.249 95.0455L159.022 86.2727H160.477L162.886 93.2273H162.977L165.386 86.2727H166.84L163.136 96.2727C162.969 96.7235 162.763 97.0966 162.516 97.392C162.27 97.6913 161.984 97.9129 161.658 98.0568C161.336 98.2008 160.973 98.2727 160.567 98.2727ZM176.406 95.1818C175.678 95.1818 175.036 94.9981 174.479 94.6307C173.923 94.2595 173.487 93.7367 173.173 93.0625C172.858 92.3845 172.701 91.5833 172.701 90.6591C172.701 89.7424 172.858 88.947 173.173 88.2727C173.487 87.5985 173.924 87.0777 174.485 86.7102C175.046 86.3428 175.693 86.1591 176.428 86.1591C176.996 86.1591 177.445 86.2538 177.775 86.4432C178.108 86.6288 178.362 86.8409 178.536 87.0795C178.714 87.3144 178.853 87.5076 178.951 87.6591H179.065V83.3636H180.406V95H179.11V93.6591H178.951C178.853 93.8182 178.712 94.0189 178.531 94.2614C178.349 94.5 178.089 94.714 177.752 94.9034C177.415 95.089 176.966 95.1818 176.406 95.1818ZM176.587 93.9773C177.125 93.9773 177.58 93.8371 177.951 93.5568C178.322 93.2727 178.604 92.8807 178.798 92.3807C178.991 91.8769 179.087 91.2955 179.087 90.6364C179.087 89.9848 178.993 89.4148 178.803 88.9261C178.614 88.4337 178.334 88.0511 177.962 87.7784C177.591 87.5019 177.133 87.3636 176.587 87.3636C176.019 87.3636 175.546 87.5095 175.167 87.8011C174.792 88.089 174.51 88.4811 174.32 88.9773C174.135 89.4697 174.042 90.0227 174.042 90.6364C174.042 91.2576 174.137 91.822 174.326 92.3295C174.519 92.8333 174.803 93.2348 175.178 93.5341C175.557 93.8295 176.027 93.9773 176.587 93.9773ZM188.548 91.4318V86.2727H189.888V95H188.548V93.5227H188.457C188.252 93.9659 187.934 94.3428 187.502 94.6534C187.07 94.9602 186.525 95.1136 185.866 95.1136C185.32 95.1136 184.835 94.9943 184.411 94.7557C183.987 94.5133 183.654 94.1496 183.411 93.6648C183.169 93.1761 183.048 92.5606 183.048 91.8182V86.2727H184.388V91.7273C184.388 92.3636 184.567 92.8712 184.923 93.25C185.282 93.6288 185.741 93.8182 186.298 93.8182C186.631 93.8182 186.97 93.733 187.315 93.5625C187.663 93.392 187.955 93.1307 188.19 92.7784C188.428 92.4261 188.548 91.9773 188.548 91.4318ZM192.344 95V86.2727H193.64V87.6364H193.754C193.935 87.1705 194.229 86.8087 194.634 86.5511C195.04 86.2898 195.526 86.1591 196.094 86.1591C196.67 86.1591 197.149 86.2898 197.532 86.5511C197.918 86.8087 198.219 87.1705 198.435 87.6364H198.526C198.75 87.1856 199.085 86.8277 199.532 86.5625C199.979 86.2936 200.515 86.1591 201.14 86.1591C201.92 86.1591 202.558 86.4034 203.055 86.892C203.551 87.3769 203.799 88.1326 203.799 89.1591V95H202.458V89.1591C202.458 88.5152 202.282 88.0549 201.93 87.7784C201.577 87.5019 201.163 87.3636 200.685 87.3636C200.072 87.3636 199.596 87.5492 199.259 87.9205C198.922 88.2879 198.754 88.7538 198.754 89.3182V95H197.39V89.0227C197.39 88.5265 197.229 88.1269 196.907 87.8239C196.585 87.517 196.17 87.3636 195.663 87.3636C195.314 87.3636 194.988 87.4564 194.685 87.642C194.386 87.8277 194.144 88.0852 193.958 88.4148C193.776 88.7405 193.685 89.1174 193.685 89.5455V95H192.344ZM206.251 95V86.2727H207.546V87.6364H207.66C207.842 87.1705 208.135 86.8087 208.54 86.5511C208.946 86.2898 209.433 86.1591 210.001 86.1591C210.576 86.1591 211.056 86.2898 211.438 86.5511C211.825 86.8087 212.126 87.1705 212.342 87.6364H212.433C212.656 87.1856 212.991 86.8277 213.438 86.5625C213.885 86.2936 214.421 86.1591 215.046 86.1591C215.826 86.1591 216.465 86.4034 216.961 86.892C217.457 87.3769 217.705 88.1326 217.705 89.1591V95H216.364V89.1591C216.364 88.5152 216.188 88.0549 215.836 87.7784C215.484 87.5019 215.069 87.3636 214.592 87.3636C213.978 87.3636 213.503 87.5492 213.165 87.9205C212.828 88.2879 212.66 88.7538 212.66 89.3182V95H211.296V89.0227C211.296 88.5265 211.135 88.1269 210.813 87.8239C210.491 87.517 210.076 87.3636 209.569 87.3636C209.22 87.3636 208.895 87.4564 208.592 87.642C208.292 87.8277 208.05 88.0852 207.864 88.4148C207.683 88.7405 207.592 89.1174 207.592 89.5455V95H206.251ZM220.708 98.2727C220.481 98.2727 220.278 98.2538 220.1 98.2159C219.922 98.1818 219.799 98.1477 219.731 98.1136L220.072 96.9318C220.397 97.0152 220.685 97.0455 220.935 97.0227C221.185 97 221.407 96.8883 221.6 96.6875C221.797 96.4905 221.977 96.1705 222.14 95.7273L222.39 95.0455L219.163 86.2727H220.617L223.026 93.2273H223.117L225.526 86.2727H226.981L223.276 96.2727C223.11 96.7235 222.903 97.0966 222.657 97.392C222.411 97.6913 222.125 97.9129 221.799 98.0568C221.477 98.2008 221.113 98.2727 220.708 98.2727ZM237.046 86.2727V87.4091H232.523V86.2727H237.046ZM233.842 84.1818H235.183V92.5C235.183 92.8788 235.237 93.1629 235.347 93.3523C235.461 93.5379 235.605 93.6629 235.779 93.7273C235.957 93.7879 236.145 93.8182 236.342 93.8182C236.489 93.8182 236.611 93.8106 236.705 93.7955C236.8 93.7765 236.876 93.7614 236.933 93.75L237.205 94.9545C237.114 94.9886 236.987 95.0227 236.825 95.0568C236.662 95.0947 236.455 95.1136 236.205 95.1136C235.826 95.1136 235.455 95.0322 235.092 94.8693C234.732 94.7064 234.433 94.4583 234.194 94.125C233.959 93.7917 233.842 93.3712 233.842 92.8636V84.1818ZM242.629 95.1818C241.788 95.1818 241.062 94.9962 240.452 94.625C239.846 94.25 239.379 93.7273 239.049 93.0568C238.723 92.3826 238.56 91.5985 238.56 90.7045C238.56 89.8106 238.723 89.0227 239.049 88.3409C239.379 87.6553 239.837 87.1212 240.424 86.7386C241.015 86.3523 241.704 86.1591 242.492 86.1591C242.947 86.1591 243.396 86.2348 243.839 86.3864C244.282 86.5379 244.685 86.7841 245.049 87.125C245.413 87.4621 245.702 87.9091 245.918 88.4659C246.134 89.0227 246.242 89.7083 246.242 90.5227V91.0909H239.515V89.9318H244.879C244.879 89.4394 244.78 89 244.583 88.6136C244.39 88.2273 244.113 87.9223 243.754 87.6989C243.397 87.4754 242.977 87.3636 242.492 87.3636C241.958 87.3636 241.496 87.4962 241.106 87.7614C240.719 88.0227 240.422 88.3636 240.214 88.7841C240.005 89.2045 239.901 89.6553 239.901 90.1364V90.9091C239.901 91.5682 240.015 92.1269 240.242 92.5852C240.473 93.0398 240.793 93.3864 241.202 93.625C241.612 93.8598 242.087 93.9773 242.629 93.9773C242.981 93.9773 243.299 93.928 243.583 93.8295C243.871 93.7273 244.119 93.5758 244.327 93.375C244.536 93.1705 244.697 92.9167 244.81 92.6136L246.106 92.9773C245.969 93.4167 245.74 93.803 245.418 94.1364C245.096 94.4659 244.699 94.7235 244.225 94.9091C243.752 95.0909 243.219 95.1818 242.629 95.1818ZM249.048 86.2727L251.138 89.8409L253.229 86.2727H254.775L251.957 90.6364L254.775 95H253.229L251.138 91.6136L249.048 95H247.502L250.275 90.6364L247.502 86.2727H249.048ZM260.484 86.2727V87.4091H255.961V86.2727H260.484ZM257.279 84.1818H258.62V92.5C258.62 92.8788 258.675 93.1629 258.785 93.3523C258.898 93.5379 259.042 93.6629 259.217 93.7273C259.395 93.7879 259.582 93.8182 259.779 93.8182C259.927 93.8182 260.048 93.8106 260.143 93.7955C260.237 93.7765 260.313 93.7614 260.37 93.75L260.643 94.9545C260.552 94.9886 260.425 95.0227 260.262 95.0568C260.099 95.0947 259.893 95.1136 259.643 95.1136C259.264 95.1136 258.893 95.0322 258.529 94.8693C258.169 94.7064 257.87 94.4583 257.631 94.125C257.397 93.7917 257.279 93.3712 257.279 92.8636V84.1818ZM270.546 95.1818C269.758 95.1818 269.067 94.9943 268.472 94.6193C267.881 94.2443 267.419 93.7197 267.086 93.0455C266.756 92.3712 266.592 91.5833 266.592 90.6818C266.592 89.7727 266.756 88.9792 267.086 88.3011C267.419 87.6231 267.881 87.0966 268.472 86.7216C269.067 86.3466 269.758 86.1591 270.546 86.1591C271.334 86.1591 272.023 86.3466 272.614 86.7216C273.209 87.0966 273.671 87.6231 274.001 88.3011C274.334 88.9792 274.501 89.7727 274.501 90.6818C274.501 91.5833 274.334 92.3712 274.001 93.0455C273.671 93.7197 273.209 94.2443 272.614 94.6193C272.023 94.9943 271.334 95.1818 270.546 95.1818ZM270.546 93.9773C271.145 93.9773 271.637 93.8239 272.023 93.517C272.41 93.2102 272.696 92.8068 272.881 92.3068C273.067 91.8068 273.16 91.2652 273.16 90.6818C273.16 90.0985 273.067 89.5549 272.881 89.0511C272.696 88.5473 272.41 88.1402 272.023 87.8295C271.637 87.5189 271.145 87.3636 270.546 87.3636C269.948 87.3636 269.455 87.5189 269.069 87.8295C268.683 88.1402 268.397 88.5473 268.211 89.0511C268.025 89.5549 267.933 90.0985 267.933 90.6818C267.933 91.2652 268.025 91.8068 268.211 92.3068C268.397 92.8068 268.683 93.2102 269.069 93.517C269.455 93.8239 269.948 93.9773 270.546 93.9773ZM280.434 86.2727V87.4091H275.729V86.2727H280.434ZM277.138 95V85.0682C277.138 84.5682 277.256 84.1515 277.491 83.8182C277.726 83.4848 278.031 83.2348 278.406 83.0682C278.781 82.9015 279.176 82.8182 279.593 82.8182C279.923 82.8182 280.192 82.8447 280.4 82.8977C280.608 82.9508 280.763 83 280.866 83.0455L280.479 84.2045C280.411 84.1818 280.317 84.1534 280.195 84.1193C280.078 84.0852 279.923 84.0682 279.729 84.0682C279.286 84.0682 278.966 84.1799 278.769 84.4034C278.576 84.6269 278.479 84.9545 278.479 85.3864V95H277.138ZM290.609 86.2727V87.4091H286.086V86.2727H290.609ZM287.404 84.1818H288.745V92.5C288.745 92.8788 288.8 93.1629 288.91 93.3523C289.023 93.5379 289.167 93.6629 289.342 93.7273C289.52 93.7879 289.707 93.8182 289.904 93.8182C290.052 93.8182 290.173 93.8106 290.268 93.7955C290.362 93.7765 290.438 93.7614 290.495 93.75L290.768 94.9545C290.677 94.9886 290.55 95.0227 290.387 95.0568C290.224 95.0947 290.018 95.1136 289.768 95.1136C289.389 95.1136 289.018 95.0322 288.654 94.8693C288.294 94.7064 287.995 94.4583 287.756 94.125C287.522 93.7917 287.404 93.3712 287.404 92.8636V84.1818ZM294.154 89.75V95H292.813V83.3636H294.154V87.6364H294.268C294.472 87.1856 294.779 86.8277 295.188 86.5625C295.601 86.2936 296.15 86.1591 296.836 86.1591C297.431 86.1591 297.951 86.2784 298.398 86.517C298.845 86.7519 299.192 87.1136 299.438 87.6023C299.688 88.0871 299.813 88.7045 299.813 89.4545V95H298.472V89.5455C298.472 88.8523 298.292 88.3163 297.933 87.9375C297.576 87.5549 297.082 87.3636 296.45 87.3636C296.01 87.3636 295.616 87.4564 295.268 87.642C294.923 87.8277 294.65 88.0985 294.45 88.4545C294.253 88.8106 294.154 89.2424 294.154 89.75ZM305.925 95.1818C305.085 95.1818 304.359 94.9962 303.749 94.625C303.143 94.25 302.675 93.7273 302.346 93.0568C302.02 92.3826 301.857 91.5985 301.857 90.7045C301.857 89.8106 302.02 89.0227 302.346 88.3409C302.675 87.6553 303.134 87.1212 303.721 86.7386C304.312 86.3523 305.001 86.1591 305.789 86.1591C306.244 86.1591 306.692 86.2348 307.136 86.3864C307.579 86.5379 307.982 86.7841 308.346 87.125C308.71 87.4621 308.999 87.9091 309.215 88.4659C309.431 89.0227 309.539 89.7083 309.539 90.5227V91.0909H302.812V89.9318H308.175C308.175 89.4394 308.077 89 307.88 88.6136C307.687 88.2273 307.41 87.9223 307.05 87.6989C306.694 87.4754 306.274 87.3636 305.789 87.3636C305.255 87.3636 304.793 87.4962 304.403 87.7614C304.016 88.0227 303.719 88.3636 303.511 88.7841C303.302 89.2045 303.198 89.6553 303.198 90.1364V90.9091C303.198 91.5682 303.312 92.1269 303.539 92.5852C303.77 93.0398 304.09 93.3864 304.499 93.625C304.908 93.8598 305.384 93.9773 305.925 93.9773C306.278 93.9773 306.596 93.928 306.88 93.8295C307.168 93.7273 307.416 93.5758 307.624 93.375C307.833 93.1705 307.994 92.9167 308.107 92.6136L309.403 92.9773C309.266 93.4167 309.037 93.803 308.715 94.1364C308.393 94.4659 307.996 94.7235 307.522 94.9091C307.049 95.0909 306.516 95.1818 305.925 95.1818ZM316.079 98.2727V86.2727H317.374V87.6591H317.533C317.632 87.5076 317.768 87.3144 317.942 87.0795C318.121 86.8409 318.374 86.6288 318.704 86.4432C319.037 86.2538 319.488 86.1591 320.056 86.1591C320.791 86.1591 321.439 86.3428 321.999 86.7102C322.56 87.0777 322.997 87.5985 323.312 88.2727C323.626 88.947 323.783 89.7424 323.783 90.6591C323.783 91.5833 323.626 92.3845 323.312 93.0625C322.997 93.7367 322.562 94.2595 322.005 94.6307C321.448 94.9981 320.806 95.1818 320.079 95.1818C319.518 95.1818 319.069 95.089 318.732 94.9034C318.395 94.714 318.136 94.5 317.954 94.2614C317.772 94.0189 317.632 93.8182 317.533 93.6591H317.42V98.2727H316.079ZM317.397 90.6364C317.397 91.2955 317.494 91.8769 317.687 92.3807C317.88 92.8807 318.162 93.2727 318.533 93.5568C318.905 93.8371 319.359 93.9773 319.897 93.9773C320.458 93.9773 320.925 93.8295 321.3 93.5341C321.679 93.2348 321.963 92.8333 322.153 92.3295C322.346 91.822 322.442 91.2576 322.442 90.6364C322.442 90.0227 322.348 89.4697 322.158 88.9773C321.973 88.4811 321.691 88.089 321.312 87.8011C320.937 87.5095 320.465 87.3636 319.897 87.3636C319.352 87.3636 318.893 87.5019 318.522 87.7784C318.151 88.0511 317.871 88.4337 317.681 88.9261C317.492 89.4148 317.397 89.9848 317.397 90.6364ZM325.829 95V86.2727H327.124V87.5909H327.215C327.374 87.1591 327.662 86.8087 328.079 86.5398C328.496 86.2708 328.965 86.1364 329.488 86.1364C329.586 86.1364 329.71 86.1383 329.857 86.142C330.005 86.1458 330.117 86.1515 330.192 86.1591V87.5227C330.147 87.5114 330.043 87.4943 329.88 87.4716C329.721 87.4451 329.552 87.4318 329.374 87.4318C328.95 87.4318 328.571 87.5208 328.238 87.6989C327.908 87.8731 327.647 88.1155 327.454 88.4261C327.264 88.733 327.17 89.0833 327.17 89.4773V95H325.829ZM331.782 95V86.2727H333.123V95H331.782ZM332.464 84.8182C332.202 84.8182 331.977 84.7292 331.788 84.5511C331.602 84.3731 331.509 84.1591 331.509 83.9091C331.509 83.6591 331.602 83.4451 331.788 83.267C331.977 83.089 332.202 83 332.464 83C332.725 83 332.949 83.089 333.134 83.267C333.324 83.4451 333.418 83.6591 333.418 83.9091C333.418 84.1591 333.324 84.3731 333.134 84.5511C332.949 84.7292 332.725 84.8182 332.464 84.8182ZM336.92 89.75V95H335.579V86.2727H336.874V87.6364H336.988C337.192 87.1932 337.503 86.8371 337.92 86.5682C338.336 86.2955 338.874 86.1591 339.533 86.1591C340.124 86.1591 340.641 86.2803 341.085 86.5227C341.528 86.7614 341.872 87.125 342.119 87.6136C342.365 88.0985 342.488 88.7121 342.488 89.4545V95H341.147V89.5455C341.147 88.8598 340.969 88.3258 340.613 87.9432C340.257 87.5568 339.768 87.3636 339.147 87.3636C338.719 87.3636 338.336 87.4564 337.999 87.642C337.666 87.8277 337.403 88.0985 337.21 88.4545C337.016 88.8106 336.92 89.2424 336.92 89.75ZM348.734 86.2727V87.4091H344.211V86.2727H348.734ZM345.529 84.1818H346.87V92.5C346.87 92.8788 346.925 93.1629 347.035 93.3523C347.148 93.5379 347.292 93.6629 347.467 93.7273C347.645 93.7879 347.832 93.8182 348.029 93.8182C348.177 93.8182 348.298 93.8106 348.393 93.7955C348.487 93.7765 348.563 93.7614 348.62 93.75L348.893 94.9545C348.802 94.9886 348.675 95.0227 348.512 95.0568C348.349 95.0947 348.143 95.1136 347.893 95.1136C347.514 95.1136 347.143 95.0322 346.779 94.8693C346.419 94.7064 346.12 94.4583 345.881 94.125C345.647 93.7917 345.529 93.3712 345.529 92.8636V84.1818ZM350.751 95V86.2727H352.092V95H350.751ZM351.433 84.8182C351.171 84.8182 350.946 84.7292 350.756 84.5511C350.571 84.3731 350.478 84.1591 350.478 83.9091C350.478 83.6591 350.571 83.4451 350.756 83.267C350.946 83.089 351.171 83 351.433 83C351.694 83 351.917 83.089 352.103 83.267C352.292 83.4451 352.387 83.6591 352.387 83.9091C352.387 84.1591 352.292 84.3731 352.103 84.5511C351.917 84.7292 351.694 84.8182 351.433 84.8182ZM355.888 89.75V95H354.548V86.2727H355.843V87.6364H355.957C356.161 87.1932 356.472 86.8371 356.888 86.5682C357.305 86.2955 357.843 86.1591 358.502 86.1591C359.093 86.1591 359.61 86.2803 360.053 86.5227C360.496 86.7614 360.841 87.125 361.087 87.6136C361.334 88.0985 361.457 88.7121 361.457 89.4545V95H360.116V89.5455C360.116 88.8598 359.938 88.3258 359.582 87.9432C359.226 87.5568 358.737 87.3636 358.116 87.3636C357.688 87.3636 357.305 87.4564 356.968 87.642C356.635 87.8277 356.371 88.0985 356.178 88.4545C355.985 88.8106 355.888 89.2424 355.888 89.75ZM367.43 98.4545C366.782 98.4545 366.225 98.3712 365.759 98.2045C365.293 98.0417 364.905 97.8258 364.594 97.5568C364.288 97.2917 364.043 97.0076 363.862 96.7045L364.93 95.9545C365.051 96.1136 365.204 96.2955 365.39 96.5C365.576 96.7083 365.829 96.8883 366.151 97.0398C366.477 97.1951 366.903 97.2727 367.43 97.2727C368.134 97.2727 368.716 97.1023 369.174 96.7614C369.632 96.4205 369.862 95.8864 369.862 95.1591V93.3864H369.748C369.649 93.5455 369.509 93.7424 369.327 93.9773C369.149 94.2083 368.892 94.4148 368.555 94.5966C368.221 94.7746 367.771 94.8636 367.202 94.8636C366.498 94.8636 365.865 94.697 365.305 94.3636C364.748 94.0303 364.307 93.5455 363.981 92.9091C363.659 92.2727 363.498 91.5 363.498 90.5909C363.498 89.697 363.655 88.9186 363.969 88.2557C364.284 87.589 364.721 87.0739 365.282 86.7102C365.843 86.3428 366.49 86.1591 367.225 86.1591C367.793 86.1591 368.244 86.2538 368.577 86.4432C368.915 86.6288 369.172 86.8409 369.35 87.0795C369.532 87.3144 369.672 87.5076 369.771 87.6591H369.907V86.2727H371.202V95.25C371.202 96 371.032 96.6098 370.691 97.0795C370.354 97.553 369.899 97.8996 369.327 98.1193C368.759 98.3428 368.127 98.4545 367.43 98.4545ZM367.384 93.6591C367.922 93.6591 368.377 93.536 368.748 93.2898C369.119 93.0436 369.401 92.6894 369.594 92.2273C369.788 91.7652 369.884 91.2121 369.884 90.5682C369.884 89.9394 369.79 89.3845 369.6 88.9034C369.411 88.4223 369.13 88.0455 368.759 87.7727C368.388 87.5 367.93 87.3636 367.384 87.3636C366.816 87.3636 366.343 87.5076 365.964 87.7955C365.589 88.0833 365.307 88.4697 365.117 88.9545C364.932 89.4394 364.839 89.9773 364.839 90.5682C364.839 91.1742 364.933 91.7102 365.123 92.1761C365.316 92.6383 365.6 93.0019 365.975 93.267C366.354 93.5284 366.824 93.6591 367.384 93.6591ZM380.725 95.2045C380.172 95.2045 379.67 95.1004 379.219 94.892C378.769 94.6799 378.411 94.375 378.146 93.9773C377.88 93.5758 377.748 93.0909 377.748 92.5227C377.748 92.0227 377.846 91.6174 378.043 91.3068C378.24 90.9924 378.504 90.7462 378.833 90.5682C379.163 90.3902 379.526 90.2576 379.924 90.1705C380.326 90.0795 380.729 90.0076 381.134 89.9545C381.665 89.8864 382.094 89.8352 382.424 89.8011C382.757 89.7633 383 89.7008 383.151 89.6136C383.307 89.5265 383.384 89.375 383.384 89.1591V89.1136C383.384 88.553 383.231 88.1174 382.924 87.8068C382.621 87.4962 382.161 87.3409 381.543 87.3409C380.903 87.3409 380.401 87.4811 380.038 87.7614C379.674 88.0417 379.418 88.3409 379.271 88.6591L377.998 88.2045C378.225 87.6742 378.528 87.2614 378.907 86.9659C379.29 86.6667 379.706 86.4583 380.157 86.3409C380.612 86.2197 381.058 86.1591 381.498 86.1591C381.778 86.1591 382.1 86.1932 382.464 86.2614C382.831 86.3258 383.185 86.4602 383.526 86.6648C383.871 86.8693 384.157 87.178 384.384 87.5909C384.612 88.0038 384.725 88.5568 384.725 89.25V95H383.384V93.8182H383.316C383.225 94.0076 383.074 94.2102 382.862 94.4261C382.649 94.642 382.367 94.8258 382.015 94.9773C381.663 95.1288 381.233 95.2045 380.725 95.2045ZM380.93 94C381.46 94 381.907 93.8958 382.271 93.6875C382.638 93.4792 382.915 93.2102 383.1 92.8807C383.29 92.5511 383.384 92.2045 383.384 91.8409V90.6136C383.327 90.6818 383.202 90.7443 383.009 90.8011C382.82 90.8542 382.6 90.9015 382.35 90.9432C382.104 90.9811 381.863 91.0152 381.629 91.0455C381.397 91.072 381.21 91.0947 381.066 91.1136C380.718 91.1591 380.392 91.233 380.089 91.3352C379.79 91.4337 379.547 91.5833 379.362 91.7841C379.18 91.9811 379.089 92.25 379.089 92.5909C379.089 93.0568 379.261 93.4091 379.606 93.6477C379.954 93.8826 380.396 94 380.93 94ZM388.513 89.75V95H387.173V86.2727H388.468V87.6364H388.582C388.786 87.1932 389.097 86.8371 389.513 86.5682C389.93 86.2955 390.468 86.1591 391.127 86.1591C391.718 86.1591 392.235 86.2803 392.678 86.5227C393.121 86.7614 393.466 87.125 393.712 87.6136C393.959 88.0985 394.082 88.7121 394.082 89.4545V95H392.741V89.5455C392.741 88.8598 392.563 88.3258 392.207 87.9432C391.851 87.5568 391.362 87.3636 390.741 87.3636C390.313 87.3636 389.93 87.4564 389.593 87.642C389.26 87.8277 388.996 88.0985 388.803 88.4545C388.61 88.8106 388.513 89.2424 388.513 89.75ZM399.827 95.1818C399.1 95.1818 398.458 94.9981 397.901 94.6307C397.344 94.2595 396.909 93.7367 396.594 93.0625C396.28 92.3845 396.123 91.5833 396.123 90.6591C396.123 89.7424 396.28 88.947 396.594 88.2727C396.909 87.5985 397.346 87.0777 397.907 86.7102C398.468 86.3428 399.115 86.1591 399.85 86.1591C400.418 86.1591 400.867 86.2538 401.197 86.4432C401.53 86.6288 401.784 86.8409 401.958 87.0795C402.136 87.3144 402.274 87.5076 402.373 87.6591H402.487V83.3636H403.827V95H402.532V93.6591H402.373C402.274 93.8182 402.134 94.0189 401.952 94.2614C401.771 94.5 401.511 94.714 401.174 94.9034C400.837 95.089 400.388 95.1818 399.827 95.1818ZM400.009 93.9773C400.547 93.9773 401.002 93.8371 401.373 93.5568C401.744 93.2727 402.026 92.8807 402.219 92.3807C402.413 91.8769 402.509 91.2955 402.509 90.6364C402.509 89.9848 402.415 89.4148 402.225 88.9261C402.036 88.4337 401.755 88.0511 401.384 87.7784C401.013 87.5019 400.555 87.3636 400.009 87.3636C399.441 87.3636 398.968 87.5095 398.589 87.8011C398.214 88.089 397.932 88.4811 397.742 88.9773C397.557 89.4697 397.464 90.0227 397.464 90.6364C397.464 91.2576 397.558 91.822 397.748 92.3295C397.941 92.8333 398.225 93.2348 398.6 93.5341C398.979 93.8295 399.449 93.9773 400.009 93.9773ZM414.765 86.2727V87.4091H410.242V86.2727H414.765ZM411.56 84.1818H412.901V92.5C412.901 92.8788 412.956 93.1629 413.066 93.3523C413.18 93.5379 413.324 93.6629 413.498 93.7273C413.676 93.7879 413.863 93.8182 414.06 93.8182C414.208 93.8182 414.329 93.8106 414.424 93.7955C414.519 93.7765 414.594 93.7614 414.651 93.75L414.924 94.9545C414.833 94.9886 414.706 95.0227 414.543 95.0568C414.38 95.0947 414.174 95.1136 413.924 95.1136C413.545 95.1136 413.174 95.0322 412.81 94.8693C412.451 94.7064 412.151 94.4583 411.913 94.125C411.678 93.7917 411.56 93.3712 411.56 92.8636V84.1818ZM417.646 98.2727C417.418 98.2727 417.216 98.2538 417.038 98.2159C416.86 98.1818 416.737 98.1477 416.668 98.1136L417.009 96.9318C417.335 97.0152 417.623 97.0455 417.873 97.0227C418.123 97 418.344 96.8883 418.538 96.6875C418.735 96.4905 418.915 96.1705 419.077 95.7273L419.327 95.0455L416.1 86.2727H417.555L419.964 93.2273H420.055L422.464 86.2727H423.918L420.214 96.2727C420.047 96.7235 419.841 97.0966 419.594 97.392C419.348 97.6913 419.062 97.9129 418.737 98.0568C418.415 98.2008 418.051 98.2727 417.646 98.2727ZM425.688 98.2727V86.2727H426.984V87.6591H427.143C427.241 87.5076 427.378 87.3144 427.552 87.0795C427.73 86.8409 427.984 86.6288 428.313 86.4432C428.647 86.2538 429.097 86.1591 429.665 86.1591C430.4 86.1591 431.048 86.3428 431.609 86.7102C432.169 87.0777 432.607 87.5985 432.921 88.2727C433.236 88.947 433.393 89.7424 433.393 90.6591C433.393 91.5833 433.236 92.3845 432.921 93.0625C432.607 93.7367 432.171 94.2595 431.614 94.6307C431.058 94.9981 430.415 95.1818 429.688 95.1818C429.128 95.1818 428.679 95.089 428.342 94.9034C428.004 94.714 427.745 94.5 427.563 94.2614C427.381 94.0189 427.241 93.8182 427.143 93.6591H427.029V98.2727H425.688ZM427.006 90.6364C427.006 91.2955 427.103 91.8769 427.296 92.3807C427.489 92.8807 427.772 93.2727 428.143 93.5568C428.514 93.8371 428.969 93.9773 429.506 93.9773C430.067 93.9773 430.535 93.8295 430.91 93.5341C431.289 93.2348 431.573 92.8333 431.762 92.3295C431.955 91.822 432.052 91.2576 432.052 90.6364C432.052 90.0227 431.957 89.4697 431.768 88.9773C431.582 88.4811 431.3 88.089 430.921 87.8011C430.546 87.5095 430.075 87.3636 429.506 87.3636C428.961 87.3636 428.503 87.5019 428.131 87.7784C427.76 88.0511 427.48 88.4337 427.29 88.9261C427.101 89.4148 427.006 89.9848 427.006 90.6364ZM439.097 95.1818C438.256 95.1818 437.531 94.9962 436.921 94.625C436.315 94.25 435.847 93.7273 435.518 93.0568C435.192 92.3826 435.029 91.5985 435.029 90.7045C435.029 89.8106 435.192 89.0227 435.518 88.3409C435.847 87.6553 436.306 87.1212 436.893 86.7386C437.484 86.3523 438.173 86.1591 438.961 86.1591C439.415 86.1591 439.864 86.2348 440.308 86.3864C440.751 86.5379 441.154 86.7841 441.518 87.125C441.881 87.4621 442.171 87.9091 442.387 88.4659C442.603 89.0227 442.711 89.7083 442.711 90.5227V91.0909H435.984V89.9318H441.347C441.347 89.4394 441.249 89 441.052 88.6136C440.859 88.2273 440.582 87.9223 440.222 87.6989C439.866 87.4754 439.446 87.3636 438.961 87.3636C438.427 87.3636 437.965 87.4962 437.575 87.7614C437.188 88.0227 436.891 88.3636 436.683 88.7841C436.474 89.2045 436.37 89.6553 436.37 90.1364V90.9091C436.37 91.5682 436.484 92.1269 436.711 92.5852C436.942 93.0398 437.262 93.3864 437.671 93.625C438.08 93.8598 438.556 93.9773 439.097 93.9773C439.45 93.9773 439.768 93.928 440.052 93.8295C440.34 93.7273 440.588 93.5758 440.796 93.375C441.004 93.1705 441.165 92.9167 441.279 92.6136L442.575 92.9773C442.438 93.4167 442.209 93.803 441.887 94.1364C441.565 94.4659 441.167 94.7235 440.694 94.9091C440.22 95.0909 439.688 95.1818 439.097 95.1818ZM450.933 88.2273L449.728 88.5682C449.652 88.3674 449.54 88.1723 449.393 87.983C449.249 87.7898 449.052 87.6307 448.802 87.5057C448.552 87.3807 448.232 87.3182 447.842 87.3182C447.308 87.3182 446.862 87.4413 446.506 87.6875C446.154 87.9299 445.978 88.2386 445.978 88.6136C445.978 88.947 446.099 89.2102 446.342 89.4034C446.584 89.5966 446.963 89.7576 447.478 89.8864L448.773 90.2045C449.554 90.3939 450.135 90.6837 450.518 91.0739C450.9 91.4602 451.092 91.9583 451.092 92.5682C451.092 93.0682 450.948 93.5152 450.66 93.9091C450.376 94.303 449.978 94.6136 449.467 94.8409C448.955 95.0682 448.361 95.1818 447.683 95.1818C446.792 95.1818 446.056 94.9886 445.472 94.6023C444.889 94.2159 444.52 93.6515 444.364 92.9091L445.637 92.5909C445.758 93.0606 445.987 93.4129 446.325 93.6477C446.665 93.8826 447.111 94 447.66 94C448.285 94 448.781 93.8674 449.148 93.6023C449.52 93.3333 449.705 93.0114 449.705 92.6364C449.705 92.3333 449.599 92.0795 449.387 91.875C449.175 91.6667 448.849 91.5114 448.41 91.4091L446.955 91.0682C446.156 90.8788 445.569 90.5852 445.194 90.1875C444.823 89.786 444.637 89.2841 444.637 88.6818C444.637 88.1894 444.775 87.7538 445.052 87.375C445.332 86.9962 445.713 86.6989 446.194 86.483C446.679 86.267 447.228 86.1591 447.842 86.1591C448.705 86.1591 449.383 86.3485 449.876 86.7273C450.372 87.1061 450.724 87.6061 450.933 88.2273ZM456.769 95.1818C455.928 95.1818 455.203 94.9962 454.593 94.625C453.987 94.25 453.519 93.7273 453.19 93.0568C452.864 92.3826 452.701 91.5985 452.701 90.7045C452.701 89.8106 452.864 89.0227 453.19 88.3409C453.519 87.6553 453.978 87.1212 454.565 86.7386C455.156 86.3523 455.845 86.1591 456.633 86.1591C457.087 86.1591 457.536 86.2348 457.979 86.3864C458.423 86.5379 458.826 86.7841 459.19 87.125C459.553 87.4621 459.843 87.9091 460.059 88.4659C460.275 89.0227 460.383 89.7083 460.383 90.5227V91.0909H453.656V89.9318H459.019C459.019 89.4394 458.921 89 458.724 88.6136C458.531 88.2273 458.254 87.9223 457.894 87.6989C457.538 87.4754 457.118 87.3636 456.633 87.3636C456.099 87.3636 455.637 87.4962 455.246 87.7614C454.86 88.0227 454.563 88.3636 454.354 88.7841C454.146 89.2045 454.042 89.6553 454.042 90.1364V90.9091C454.042 91.5682 454.156 92.1269 454.383 92.5852C454.614 93.0398 454.934 93.3864 455.343 93.625C455.752 93.8598 456.228 93.9773 456.769 93.9773C457.121 93.9773 457.44 93.928 457.724 93.8295C458.012 93.7273 458.26 93.5758 458.468 93.375C458.676 93.1705 458.837 92.9167 458.951 92.6136L460.246 92.9773C460.11 93.4167 459.881 93.803 459.559 94.1364C459.237 94.4659 458.839 94.7235 458.366 94.9091C457.892 95.0909 457.36 95.1818 456.769 95.1818ZM466.218 86.2727V87.4091H461.695V86.2727H466.218ZM463.013 84.1818H464.354V92.5C464.354 92.8788 464.409 93.1629 464.519 93.3523C464.633 93.5379 464.777 93.6629 464.951 93.7273C465.129 93.7879 465.317 93.8182 465.513 93.8182C465.661 93.8182 465.782 93.8106 465.877 93.7955C465.972 93.7765 466.048 93.7614 466.104 93.75L466.377 94.9545C466.286 94.9886 466.159 95.0227 465.996 95.0568C465.834 95.0947 465.627 95.1136 465.377 95.1136C464.998 95.1136 464.627 95.0322 464.263 94.8693C463.904 94.7064 463.604 94.4583 463.366 94.125C463.131 93.7917 463.013 93.3712 463.013 92.8636V84.1818ZM472.031 86.2727V87.4091H467.508V86.2727H472.031ZM468.826 84.1818H470.167V92.5C470.167 92.8788 470.222 93.1629 470.332 93.3523C470.445 93.5379 470.589 93.6629 470.763 93.7273C470.942 93.7879 471.129 93.8182 471.326 93.8182C471.474 93.8182 471.595 93.8106 471.69 93.7955C471.784 93.7765 471.86 93.7614 471.917 93.75L472.19 94.9545C472.099 94.9886 471.972 95.0227 471.809 95.0568C471.646 95.0947 471.44 95.1136 471.19 95.1136C470.811 95.1136 470.44 95.0322 470.076 94.8693C469.716 94.7064 469.417 94.4583 469.178 94.125C468.943 93.7917 468.826 93.3712 468.826 92.8636V84.1818ZM474.048 95V86.2727H475.388V95H474.048ZM474.729 84.8182C474.468 84.8182 474.243 84.7292 474.053 84.5511C473.868 84.3731 473.775 84.1591 473.775 83.9091C473.775 83.6591 473.868 83.4451 474.053 83.267C474.243 83.089 474.468 83 474.729 83C474.991 83 475.214 83.089 475.4 83.267C475.589 83.4451 475.684 83.6591 475.684 83.9091C475.684 84.1591 475.589 84.3731 475.4 84.5511C475.214 84.7292 474.991 84.8182 474.729 84.8182ZM479.185 89.75V95H477.844V86.2727H479.14V87.6364H479.254C479.458 87.1932 479.769 86.8371 480.185 86.5682C480.602 86.2955 481.14 86.1591 481.799 86.1591C482.39 86.1591 482.907 86.2803 483.35 86.5227C483.793 86.7614 484.138 87.125 484.384 87.6136C484.63 88.0985 484.754 88.7121 484.754 89.4545V95H483.413V89.5455C483.413 88.8598 483.235 88.3258 482.879 87.9432C482.522 87.5568 482.034 87.3636 481.413 87.3636C480.985 87.3636 480.602 87.4564 480.265 87.642C479.932 87.8277 479.668 88.0985 479.475 88.4545C479.282 88.8106 479.185 89.2424 479.185 89.75ZM490.727 98.4545C490.079 98.4545 489.522 98.3712 489.056 98.2045C488.59 98.0417 488.202 97.8258 487.891 97.5568C487.585 97.2917 487.34 97.0076 487.158 96.7045L488.227 95.9545C488.348 96.1136 488.501 96.2955 488.687 96.5C488.872 96.7083 489.126 96.8883 489.448 97.0398C489.774 97.1951 490.2 97.2727 490.727 97.2727C491.431 97.2727 492.013 97.1023 492.471 96.7614C492.929 96.4205 493.158 95.8864 493.158 95.1591V93.3864H493.045C492.946 93.5455 492.806 93.7424 492.624 93.9773C492.446 94.2083 492.189 94.4148 491.852 94.5966C491.518 94.7746 491.067 94.8636 490.499 94.8636C489.795 94.8636 489.162 94.697 488.602 94.3636C488.045 94.0303 487.603 93.5455 487.278 92.9091C486.956 92.2727 486.795 91.5 486.795 90.5909C486.795 89.697 486.952 88.9186 487.266 88.2557C487.581 87.589 488.018 87.0739 488.579 86.7102C489.139 86.3428 489.787 86.1591 490.522 86.1591C491.09 86.1591 491.541 86.2538 491.874 86.4432C492.211 86.6288 492.469 86.8409 492.647 87.0795C492.829 87.3144 492.969 87.5076 493.067 87.6591H493.204V86.2727H494.499V95.25C494.499 96 494.329 96.6098 493.988 97.0795C493.651 97.553 493.196 97.8996 492.624 98.1193C492.056 98.3428 491.424 98.4545 490.727 98.4545ZM490.681 93.6591C491.219 93.6591 491.674 93.536 492.045 93.2898C492.416 93.0436 492.698 92.6894 492.891 92.2273C493.085 91.7652 493.181 91.2121 493.181 90.5682C493.181 89.9394 493.086 89.3845 492.897 88.9034C492.708 88.4223 492.427 88.0455 492.056 87.7727C491.685 87.5 491.227 87.3636 490.681 87.3636C490.113 87.3636 489.639 87.5076 489.261 87.7955C488.886 88.0833 488.603 88.4697 488.414 88.9545C488.228 89.4394 488.136 89.9773 488.136 90.5682C488.136 91.1742 488.23 91.7102 488.42 92.1761C488.613 92.6383 488.897 93.0019 489.272 93.267C489.651 93.5284 490.121 93.6591 490.681 93.6591ZM501.454 95V86.2727H502.795V95H501.454ZM502.136 84.8182C501.874 84.8182 501.649 84.7292 501.46 84.5511C501.274 84.3731 501.181 84.1591 501.181 83.9091C501.181 83.6591 501.274 83.4451 501.46 83.267C501.649 83.089 501.874 83 502.136 83C502.397 83 502.621 83.089 502.806 83.267C502.996 83.4451 503.09 83.6591 503.09 83.9091C503.09 84.1591 502.996 84.3731 502.806 84.5511C502.621 84.7292 502.397 84.8182 502.136 84.8182ZM506.592 89.75V95H505.251V86.2727H506.546V87.6364H506.66C506.864 87.1932 507.175 86.8371 507.592 86.5682C508.008 86.2955 508.546 86.1591 509.205 86.1591C509.796 86.1591 510.313 86.2803 510.756 86.5227C511.2 86.7614 511.544 87.125 511.79 87.6136C512.037 88.0985 512.16 88.7121 512.16 89.4545V95H510.819V89.5455C510.819 88.8598 510.641 88.3258 510.285 87.9432C509.929 87.5568 509.44 87.3636 508.819 87.3636C508.391 87.3636 508.008 87.4564 507.671 87.642C507.338 87.8277 507.075 88.0985 506.881 88.4545C506.688 88.8106 506.592 89.2424 506.592 89.75ZM517.906 95.1818C517.178 95.1818 516.536 94.9981 515.979 94.6307C515.423 94.2595 514.987 93.7367 514.673 93.0625C514.358 92.3845 514.201 91.5833 514.201 90.6591C514.201 89.7424 514.358 88.947 514.673 88.2727C514.987 87.5985 515.424 87.0777 515.985 86.7102C516.546 86.3428 517.193 86.1591 517.928 86.1591C518.496 86.1591 518.945 86.2538 519.275 86.4432C519.608 86.6288 519.862 86.8409 520.036 87.0795C520.214 87.3144 520.353 87.5076 520.451 87.6591H520.565V83.3636H521.906V95H520.61V93.6591H520.451C520.353 93.8182 520.212 94.0189 520.031 94.2614C519.849 94.5 519.589 94.714 519.252 94.9034C518.915 95.089 518.466 95.1818 517.906 95.1818ZM518.087 93.9773C518.625 93.9773 519.08 93.8371 519.451 93.5568C519.822 93.2727 520.104 92.8807 520.298 92.3807C520.491 91.8769 520.587 91.2955 520.587 90.6364C520.587 89.9848 520.493 89.4148 520.303 88.9261C520.114 88.4337 519.834 88.0511 519.462 87.7784C519.091 87.5019 518.633 87.3636 518.087 87.3636C517.519 87.3636 517.046 87.5095 516.667 87.8011C516.292 88.089 516.01 88.4811 515.82 88.9773C515.635 89.4697 515.542 90.0227 515.542 90.6364C515.542 91.2576 515.637 91.822 515.826 92.3295C516.019 92.8333 516.303 93.2348 516.678 93.5341C517.057 93.8295 517.527 93.9773 518.087 93.9773ZM530.048 91.4318V86.2727H531.388V95H530.048V93.5227H529.957C529.752 93.9659 529.434 94.3428 529.002 94.6534C528.57 94.9602 528.025 95.1136 527.366 95.1136C526.82 95.1136 526.335 94.9943 525.911 94.7557C525.487 94.5133 525.154 94.1496 524.911 93.6648C524.669 93.1761 524.548 92.5606 524.548 91.8182V86.2727H525.888V91.7273C525.888 92.3636 526.067 92.8712 526.423 93.25C526.782 93.6288 527.241 93.8182 527.798 93.8182C528.131 93.8182 528.47 93.733 528.815 93.5625C529.163 93.392 529.455 93.1307 529.69 92.7784C529.928 92.4261 530.048 91.9773 530.048 91.4318ZM540.026 88.2273L538.822 88.5682C538.746 88.3674 538.634 88.1723 538.487 87.983C538.343 87.7898 538.146 87.6307 537.896 87.5057C537.646 87.3807 537.326 87.3182 536.935 87.3182C536.401 87.3182 535.956 87.4413 535.6 87.6875C535.248 87.9299 535.072 88.2386 535.072 88.6136C535.072 88.947 535.193 89.2102 535.435 89.4034C535.678 89.5966 536.057 89.7576 536.572 89.8864L537.867 90.2045C538.647 90.3939 539.229 90.6837 539.612 91.0739C539.994 91.4602 540.185 91.9583 540.185 92.5682C540.185 93.0682 540.041 93.5152 539.754 93.9091C539.469 94.303 539.072 94.6136 538.56 94.8409C538.049 95.0682 537.454 95.1818 536.776 95.1818C535.886 95.1818 535.149 94.9886 534.566 94.6023C533.983 94.2159 533.613 93.6515 533.458 92.9091L534.731 92.5909C534.852 93.0606 535.081 93.4129 535.418 93.6477C535.759 93.8826 536.204 94 536.754 94C537.379 94 537.875 93.8674 538.242 93.6023C538.613 93.3333 538.799 93.0114 538.799 92.6364C538.799 92.3333 538.693 92.0795 538.481 91.875C538.269 91.6667 537.943 91.5114 537.504 91.4091L536.049 91.0682C535.25 90.8788 534.663 90.5852 534.288 90.1875C533.916 89.786 533.731 89.2841 533.731 88.6818C533.731 88.1894 533.869 87.7538 534.146 87.375C534.426 86.9962 534.807 86.6989 535.288 86.483C535.772 86.267 536.322 86.1591 536.935 86.1591C537.799 86.1591 538.477 86.3485 538.969 86.7273C539.466 87.1061 539.818 87.6061 540.026 88.2273ZM545.999 86.2727V87.4091H541.477V86.2727H545.999ZM542.795 84.1818H544.136V92.5C544.136 92.8788 544.191 93.1629 544.3 93.3523C544.414 93.5379 544.558 93.6629 544.732 93.7273C544.91 93.7879 545.098 93.8182 545.295 93.8182C545.442 93.8182 545.564 93.8106 545.658 93.7955C545.753 93.7765 545.829 93.7614 545.886 93.75L546.158 94.9545C546.067 94.9886 545.941 95.0227 545.778 95.0568C545.615 95.0947 545.408 95.1136 545.158 95.1136C544.78 95.1136 544.408 95.0322 544.045 94.8693C543.685 94.7064 543.386 94.4583 543.147 94.125C542.912 93.7917 542.795 93.3712 542.795 92.8636V84.1818ZM548.016 95V86.2727H549.312V87.5909H549.403C549.562 87.1591 549.85 86.8087 550.266 86.5398C550.683 86.2708 551.153 86.1364 551.675 86.1364C551.774 86.1364 551.897 86.1383 552.045 86.142C552.192 86.1458 552.304 86.1515 552.38 86.1591V87.5227C552.335 87.5114 552.23 87.4943 552.067 87.4716C551.908 87.4451 551.74 87.4318 551.562 87.4318C551.138 87.4318 550.759 87.5208 550.425 87.6989C550.096 87.8731 549.835 88.1155 549.641 88.4261C549.452 88.733 549.357 89.0833 549.357 89.4773V95H548.016ZM555.099 98.2727C554.871 98.2727 554.669 98.2538 554.491 98.2159C554.313 98.1818 554.19 98.1477 554.121 98.1136L554.462 96.9318C554.788 97.0152 555.076 97.0455 555.326 97.0227C555.576 97 555.798 96.8883 555.991 96.6875C556.188 96.4905 556.368 96.1705 556.531 95.7273L556.781 95.0455L553.553 86.2727H555.008L557.417 93.2273H557.508L559.917 86.2727H561.371L557.667 96.2727C557.5 96.7235 557.294 97.0966 557.048 97.392C556.801 97.6913 556.515 97.9129 556.19 98.0568C555.868 98.2008 555.504 98.2727 555.099 98.2727ZM563.572 95.0909C563.291 95.0909 563.051 94.9905 562.85 94.7898C562.649 94.589 562.549 94.3485 562.549 94.0682C562.549 93.7879 562.649 93.5473 562.85 93.3466C563.051 93.1458 563.291 93.0455 563.572 93.0455C563.852 93.0455 564.093 93.1458 564.293 93.3466C564.494 93.5473 564.594 93.7879 564.594 94.0682C564.594 94.2538 564.547 94.4242 564.452 94.5795C564.362 94.7348 564.238 94.8598 564.083 94.9545C563.932 95.0455 563.761 95.0909 563.572 95.0909ZM571.683 95V83.3636H573.092V93.75H578.501V95H571.683ZM584.046 95.1818C583.258 95.1818 582.567 94.9943 581.972 94.6193C581.381 94.2443 580.919 93.7197 580.586 93.0455C580.256 92.3712 580.092 91.5833 580.092 90.6818C580.092 89.7727 580.256 88.9792 580.586 88.3011C580.919 87.6231 581.381 87.0966 581.972 86.7216C582.567 86.3466 583.258 86.1591 584.046 86.1591C584.834 86.1591 585.523 86.3466 586.114 86.7216C586.709 87.0966 587.171 87.6231 587.501 88.3011C587.834 88.9792 588.001 89.7727 588.001 90.6818C588.001 91.5833 587.834 92.3712 587.501 93.0455C587.171 93.7197 586.709 94.2443 586.114 94.6193C585.523 94.9943 584.834 95.1818 584.046 95.1818ZM584.046 93.9773C584.645 93.9773 585.137 93.8239 585.523 93.517C585.91 93.2102 586.196 92.8068 586.381 92.3068C586.567 91.8068 586.66 91.2652 586.66 90.6818C586.66 90.0985 586.567 89.5549 586.381 89.0511C586.196 88.5473 585.91 88.1402 585.523 87.8295C585.137 87.5189 584.645 87.3636 584.046 87.3636C583.448 87.3636 582.955 87.5189 582.569 87.8295C582.183 88.1402 581.897 88.5473 581.711 89.0511C581.525 89.5549 581.433 90.0985 581.433 90.6818C581.433 91.2652 581.525 91.8068 581.711 92.3068C581.897 92.8068 582.183 93.2102 582.569 93.517C582.955 93.8239 583.448 93.9773 584.046 93.9773ZM590.048 95V86.2727H591.343V87.5909H591.434C591.593 87.1591 591.881 86.8087 592.298 86.5398C592.714 86.2708 593.184 86.1364 593.707 86.1364C593.805 86.1364 593.928 86.1383 594.076 86.142C594.224 86.1458 594.335 86.1515 594.411 86.1591V87.5227C594.366 87.5114 594.262 87.4943 594.099 87.4716C593.94 87.4451 593.771 87.4318 593.593 87.4318C593.169 87.4318 592.79 87.5208 592.457 87.6989C592.127 87.8731 591.866 88.1155 591.673 88.4261C591.483 88.733 591.388 89.0833 591.388 89.4773V95H590.048ZM599.394 95.1818C598.553 95.1818 597.828 94.9962 597.218 94.625C596.612 94.25 596.144 93.7273 595.815 93.0568C595.489 92.3826 595.326 91.5985 595.326 90.7045C595.326 89.8106 595.489 89.0227 595.815 88.3409C596.144 87.6553 596.603 87.1212 597.19 86.7386C597.781 86.3523 598.47 86.1591 599.258 86.1591C599.712 86.1591 600.161 86.2348 600.604 86.3864C601.048 86.5379 601.451 86.7841 601.815 87.125C602.178 87.4621 602.468 87.9091 602.684 88.4659C602.9 89.0227 603.008 89.7083 603.008 90.5227V91.0909H596.281V89.9318H601.644C601.644 89.4394 601.546 89 601.349 88.6136C601.156 88.2273 600.879 87.9223 600.519 87.6989C600.163 87.4754 599.743 87.3636 599.258 87.3636C598.724 87.3636 598.262 87.4962 597.871 87.7614C597.485 88.0227 597.188 88.3636 596.979 88.7841C596.771 89.2045 596.667 89.6553 596.667 90.1364V90.9091C596.667 91.5682 596.781 92.1269 597.008 92.5852C597.239 93.0398 597.559 93.3864 597.968 93.625C598.377 93.8598 598.853 93.9773 599.394 93.9773C599.746 93.9773 600.065 93.928 600.349 93.8295C600.637 93.7273 600.885 93.5758 601.093 93.375C601.301 93.1705 601.462 92.9167 601.576 92.6136L602.871 92.9773C602.735 93.4167 602.506 93.803 602.184 94.1364C601.862 94.4659 601.464 94.7235 600.991 94.9091C600.517 95.0909 599.985 95.1818 599.394 95.1818ZM605.048 95V86.2727H606.343V87.6364H606.457C606.638 87.1705 606.932 86.8087 607.337 86.5511C607.743 86.2898 608.229 86.1591 608.798 86.1591C609.373 86.1591 609.853 86.2898 610.235 86.5511C610.621 86.8087 610.923 87.1705 611.138 87.6364H611.229C611.453 87.1856 611.788 86.8277 612.235 86.5625C612.682 86.2936 613.218 86.1591 613.843 86.1591C614.623 86.1591 615.262 86.4034 615.758 86.892C616.254 87.3769 616.502 88.1326 616.502 89.1591V95H615.161V89.1591C615.161 88.5152 614.985 88.0549 614.633 87.7784C614.281 87.5019 613.866 87.3636 613.388 87.3636C612.775 87.3636 612.299 87.5492 611.962 87.9205C611.625 88.2879 611.457 88.7538 611.457 89.3182V95H610.093V89.0227C610.093 88.5265 609.932 88.1269 609.61 87.8239C609.288 87.517 608.873 87.3636 608.366 87.3636C608.017 87.3636 607.692 87.4564 607.388 87.642C607.089 87.8277 606.847 88.0852 606.661 88.4148C606.479 88.7405 606.388 89.1174 606.388 89.5455V95H605.048ZM625.045 83.3636V95H623.636V83.3636H625.045ZM627.688 98.2727V86.2727H628.984V87.6591H629.143C629.241 87.5076 629.378 87.3144 629.552 87.0795C629.73 86.8409 629.984 86.6288 630.313 86.4432C630.647 86.2538 631.097 86.1591 631.665 86.1591C632.4 86.1591 633.048 86.3428 633.609 86.7102C634.169 87.0777 634.607 87.5985 634.921 88.2727C635.236 88.947 635.393 89.7424 635.393 90.6591C635.393 91.5833 635.236 92.3845 634.921 93.0625C634.607 93.7367 634.171 94.2595 633.614 94.6307C633.058 94.9981 632.415 95.1818 631.688 95.1818C631.128 95.1818 630.679 95.089 630.342 94.9034C630.004 94.714 629.745 94.5 629.563 94.2614C629.381 94.0189 629.241 93.8182 629.143 93.6591H629.029V98.2727H627.688ZM629.006 90.6364C629.006 91.2955 629.103 91.8769 629.296 92.3807C629.489 92.8807 629.772 93.2727 630.143 93.5568C630.514 93.8371 630.969 93.9773 631.506 93.9773C632.067 93.9773 632.535 93.8295 632.91 93.5341C633.289 93.2348 633.573 92.8333 633.762 92.3295C633.955 91.822 634.052 91.2576 634.052 90.6364C634.052 90.0227 633.957 89.4697 633.768 88.9773C633.582 88.4811 633.3 88.089 632.921 87.8011C632.546 87.5095 632.075 87.3636 631.506 87.3636C630.961 87.3636 630.503 87.5019 630.131 87.7784C629.76 88.0511 629.48 88.4337 629.29 88.9261C629.101 89.4148 629.006 89.9848 629.006 90.6364ZM643.62 88.2273L642.415 88.5682C642.34 88.3674 642.228 88.1723 642.08 87.983C641.936 87.7898 641.739 87.6307 641.489 87.5057C641.239 87.3807 640.919 87.3182 640.529 87.3182C639.995 87.3182 639.55 87.4413 639.194 87.6875C638.842 87.9299 638.665 88.2386 638.665 88.6136C638.665 88.947 638.787 89.2102 639.029 89.4034C639.272 89.5966 639.65 89.7576 640.165 89.8864L641.461 90.2045C642.241 90.3939 642.823 90.6837 643.205 91.0739C643.588 91.4602 643.779 91.9583 643.779 92.5682C643.779 93.0682 643.635 93.5152 643.347 93.9091C643.063 94.303 642.665 94.6136 642.154 94.8409C641.643 95.0682 641.048 95.1818 640.37 95.1818C639.48 95.1818 638.743 94.9886 638.16 94.6023C637.576 94.2159 637.207 93.6515 637.052 92.9091L638.325 92.5909C638.446 93.0606 638.675 93.4129 639.012 93.6477C639.353 93.8826 639.798 94 640.347 94C640.972 94 641.469 93.8674 641.836 93.6023C642.207 93.3333 642.393 93.0114 642.393 92.6364C642.393 92.3333 642.287 92.0795 642.075 91.875C641.862 91.6667 641.537 91.5114 641.097 91.4091L639.643 91.0682C638.844 90.8788 638.256 90.5852 637.881 90.1875C637.51 89.786 637.325 89.2841 637.325 88.6818C637.325 88.1894 637.463 87.7538 637.739 87.375C638.02 86.9962 638.4 86.6989 638.881 86.483C639.366 86.267 639.915 86.1591 640.529 86.1591C641.393 86.1591 642.071 86.3485 642.563 86.7273C643.059 87.1061 643.412 87.6061 643.62 88.2273ZM651.298 91.4318V86.2727H652.638V95H651.298V93.5227H651.207C651.002 93.9659 650.684 94.3428 650.252 94.6534C649.82 94.9602 649.275 95.1136 648.616 95.1136C648.07 95.1136 647.585 94.9943 647.161 94.7557C646.737 94.5133 646.404 94.1496 646.161 93.6648C645.919 93.1761 645.798 92.5606 645.798 91.8182V86.2727H647.138V91.7273C647.138 92.3636 647.317 92.8712 647.673 93.25C648.032 93.6288 648.491 93.8182 649.048 93.8182C649.381 93.8182 649.72 93.733 650.065 93.5625C650.413 93.392 650.705 93.1307 650.94 92.7784C651.178 92.4261 651.298 91.9773 651.298 91.4318ZM655.094 95V86.2727H656.39V87.6364H656.504C656.685 87.1705 656.979 86.8087 657.384 86.5511C657.79 86.2898 658.276 86.1591 658.844 86.1591C659.42 86.1591 659.899 86.2898 660.282 86.5511C660.668 86.8087 660.969 87.1705 661.185 87.6364H661.276C661.5 87.1856 661.835 86.8277 662.282 86.5625C662.729 86.2936 663.265 86.1591 663.89 86.1591C664.67 86.1591 665.308 86.4034 665.805 86.892C666.301 87.3769 666.549 88.1326 666.549 89.1591V95H665.208V89.1591C665.208 88.5152 665.032 88.0549 664.68 87.7784C664.327 87.5019 663.913 87.3636 663.435 87.3636C662.822 87.3636 662.346 87.5492 662.009 87.9205C661.672 88.2879 661.504 88.7538 661.504 89.3182V95H660.14V89.0227C660.14 88.5265 659.979 88.1269 659.657 87.8239C659.335 87.517 658.92 87.3636 658.413 87.3636C658.064 87.3636 657.738 87.4564 657.435 87.642C657.136 87.8277 656.894 88.0852 656.708 88.4148C656.526 88.7405 656.435 89.1174 656.435 89.5455V95H655.094ZM674.842 89.75V95H673.501V83.3636H674.842V87.6364H674.955C675.16 87.1856 675.467 86.8277 675.876 86.5625C676.289 86.2936 676.838 86.1591 677.523 86.1591C678.118 86.1591 678.639 86.2784 679.086 86.517C679.533 86.7519 679.879 87.1136 680.126 87.6023C680.376 88.0871 680.501 88.7045 680.501 89.4545V95H679.16V89.5455C679.16 88.8523 678.98 88.3163 678.62 87.9375C678.264 87.5549 677.77 87.3636 677.137 87.3636C676.698 87.3636 676.304 87.4564 675.955 87.642C675.611 87.8277 675.338 88.0985 675.137 88.4545C674.94 88.8106 674.842 89.2424 674.842 89.75ZM685.522 95.2045C684.969 95.2045 684.467 95.1004 684.016 94.892C683.566 94.6799 683.208 94.375 682.942 93.9773C682.677 93.5758 682.545 93.0909 682.545 92.5227C682.545 92.0227 682.643 91.6174 682.84 91.3068C683.037 90.9924 683.3 90.7462 683.63 90.5682C683.96 90.3902 684.323 90.2576 684.721 90.1705C685.122 90.0795 685.526 90.0076 685.931 89.9545C686.461 89.8864 686.891 89.8352 687.221 89.8011C687.554 89.7633 687.797 89.7008 687.948 89.6136C688.103 89.5265 688.181 89.375 688.181 89.1591V89.1136C688.181 88.553 688.028 88.1174 687.721 87.8068C687.418 87.4962 686.958 87.3409 686.34 87.3409C685.7 87.3409 685.198 87.4811 684.835 87.7614C684.471 88.0417 684.215 88.3409 684.067 88.6591L682.795 88.2045C683.022 87.6742 683.325 87.2614 683.704 86.9659C684.086 86.6667 684.503 86.4583 684.954 86.3409C685.408 86.2197 685.855 86.1591 686.295 86.1591C686.575 86.1591 686.897 86.1932 687.261 86.2614C687.628 86.3258 687.982 86.4602 688.323 86.6648C688.668 86.8693 688.954 87.178 689.181 87.5909C689.408 88.0038 689.522 88.5568 689.522 89.25V95H688.181V93.8182H688.113C688.022 94.0076 687.871 94.2102 687.658 94.4261C687.446 94.642 687.164 94.8258 686.812 94.9773C686.46 95.1288 686.03 95.2045 685.522 95.2045ZM685.727 94C686.257 94 686.704 93.8958 687.067 93.6875C687.435 93.4792 687.711 93.2102 687.897 92.8807C688.086 92.5511 688.181 92.2045 688.181 91.8409V90.6136C688.124 90.6818 687.999 90.7443 687.806 90.8011C687.617 90.8542 687.397 90.9015 687.147 90.9432C686.901 90.9811 686.66 91.0152 686.425 91.0455C686.194 91.072 686.007 91.0947 685.863 91.1136C685.514 91.1591 685.189 91.233 684.886 91.3352C684.586 91.4337 684.344 91.5833 684.158 91.7841C683.977 91.9811 683.886 92.25 683.886 92.5909C683.886 93.0568 684.058 93.4091 684.403 93.6477C684.751 93.8826 685.192 94 685.727 94ZM698.151 88.2273L696.947 88.5682C696.871 88.3674 696.759 88.1723 696.612 87.983C696.468 87.7898 696.271 87.6307 696.021 87.5057C695.771 87.3807 695.451 87.3182 695.06 87.3182C694.526 87.3182 694.081 87.4413 693.725 87.6875C693.373 87.9299 693.197 88.2386 693.197 88.6136C693.197 88.947 693.318 89.2102 693.56 89.4034C693.803 89.5966 694.182 89.7576 694.697 89.8864L695.992 90.2045C696.772 90.3939 697.354 90.6837 697.737 91.0739C698.119 91.4602 698.31 91.9583 698.31 92.5682C698.31 93.0682 698.166 93.5152 697.879 93.9091C697.594 94.303 697.197 94.6136 696.685 94.8409C696.174 95.0682 695.579 95.1818 694.901 95.1818C694.011 95.1818 693.274 94.9886 692.691 94.6023C692.108 94.2159 691.738 93.6515 691.583 92.9091L692.856 92.5909C692.977 93.0606 693.206 93.4129 693.543 93.6477C693.884 93.8826 694.329 94 694.879 94C695.504 94 696 93.8674 696.367 93.6023C696.738 93.3333 696.924 93.0114 696.924 92.6364C696.924 92.3333 696.818 92.0795 696.606 91.875C696.394 91.6667 696.068 91.5114 695.629 91.4091L694.174 91.0682C693.375 90.8788 692.788 90.5852 692.413 90.1875C692.041 89.786 691.856 89.2841 691.856 88.6818C691.856 88.1894 691.994 87.7538 692.271 87.375C692.551 86.9962 692.932 86.6989 693.413 86.483C693.897 86.267 694.447 86.1591 695.06 86.1591C695.924 86.1591 696.602 86.3485 697.094 86.7273C697.591 87.1061 697.943 87.6061 698.151 88.2273ZM705.011 95V83.3636H706.352V87.6591H706.465C706.564 87.5076 706.7 87.3144 706.874 87.0795C707.052 86.8409 707.306 86.6288 707.636 86.4432C707.969 86.2538 708.42 86.1591 708.988 86.1591C709.723 86.1591 710.371 86.3428 710.931 86.7102C711.492 87.0777 711.929 87.5985 712.244 88.2727C712.558 88.947 712.715 89.7424 712.715 90.6591C712.715 91.5833 712.558 92.3845 712.244 93.0625C711.929 93.7367 711.494 94.2595 710.937 94.6307C710.38 94.9981 709.738 95.1818 709.011 95.1818C708.45 95.1818 708.001 95.089 707.664 94.9034C707.327 94.714 707.067 94.5 706.886 94.2614C706.704 94.0189 706.564 93.8182 706.465 93.6591H706.306V95H705.011ZM706.329 90.6364C706.329 91.2955 706.425 91.8769 706.619 92.3807C706.812 92.8807 707.094 93.2727 707.465 93.5568C707.836 93.8371 708.291 93.9773 708.829 93.9773C709.389 93.9773 709.857 93.8295 710.232 93.5341C710.611 93.2348 710.895 92.8333 711.085 92.3295C711.278 91.822 711.374 91.2576 711.374 90.6364C711.374 90.0227 711.28 89.4697 711.09 88.9773C710.905 88.4811 710.622 88.089 710.244 87.8011C709.869 87.5095 709.397 87.3636 708.829 87.3636C708.283 87.3636 707.825 87.5019 707.454 87.7784C707.083 88.0511 706.802 88.4337 706.613 88.9261C706.424 89.4148 706.329 89.9848 706.329 90.6364ZM718.425 95.1818C717.585 95.1818 716.859 94.9962 716.249 94.625C715.643 94.25 715.175 93.7273 714.846 93.0568C714.52 92.3826 714.357 91.5985 714.357 90.7045C714.357 89.8106 714.52 89.0227 714.846 88.3409C715.175 87.6553 715.634 87.1212 716.221 86.7386C716.812 86.3523 717.501 86.1591 718.289 86.1591C718.744 86.1591 719.192 86.2348 719.636 86.3864C720.079 86.5379 720.482 86.7841 720.846 87.125C721.21 87.4621 721.499 87.9091 721.715 88.4659C721.931 89.0227 722.039 89.7083 722.039 90.5227V91.0909H715.312V89.9318H720.675C720.675 89.4394 720.577 89 720.38 88.6136C720.187 88.2273 719.91 87.9223 719.55 87.6989C719.194 87.4754 718.774 87.3636 718.289 87.3636C717.755 87.3636 717.293 87.4962 716.903 87.7614C716.516 88.0227 716.219 88.3636 716.011 88.7841C715.802 89.2045 715.698 89.6553 715.698 90.1364V90.9091C715.698 91.5682 715.812 92.1269 716.039 92.5852C716.27 93.0398 716.59 93.3864 716.999 93.625C717.408 93.8598 717.884 93.9773 718.425 93.9773C718.778 93.9773 719.096 93.928 719.38 93.8295C719.668 93.7273 719.916 93.5758 720.124 93.375C720.333 93.1705 720.494 92.9167 720.607 92.6136L721.903 92.9773C721.766 93.4167 721.537 93.803 721.215 94.1364C720.893 94.4659 720.496 94.7235 720.022 94.9091C719.549 95.0909 719.016 95.1818 718.425 95.1818ZM727.738 95.1818C726.897 95.1818 726.172 94.9962 725.562 94.625C724.956 94.25 724.488 93.7273 724.158 93.0568C723.833 92.3826 723.67 91.5985 723.67 90.7045C723.67 89.8106 723.833 89.0227 724.158 88.3409C724.488 87.6553 724.946 87.1212 725.533 86.7386C726.124 86.3523 726.814 86.1591 727.602 86.1591C728.056 86.1591 728.505 86.2348 728.948 86.3864C729.391 86.5379 729.795 86.7841 730.158 87.125C730.522 87.4621 730.812 87.9091 731.028 88.4659C731.244 89.0227 731.352 89.7083 731.352 90.5227V91.0909H724.624V89.9318H729.988C729.988 89.4394 729.889 89 729.692 88.6136C729.499 88.2273 729.223 87.9223 728.863 87.6989C728.507 87.4754 728.086 87.3636 727.602 87.3636C727.067 87.3636 726.605 87.4962 726.215 87.7614C725.829 88.0227 725.531 88.3636 725.323 88.7841C725.115 89.2045 725.011 89.6553 725.011 90.1364V90.9091C725.011 91.5682 725.124 92.1269 725.352 92.5852C725.583 93.0398 725.903 93.3864 726.312 93.625C726.721 93.8598 727.196 93.9773 727.738 93.9773C728.09 93.9773 728.408 93.928 728.692 93.8295C728.98 93.7273 729.228 93.5758 729.437 93.375C729.645 93.1705 729.806 92.9167 729.92 92.6136L731.215 92.9773C731.079 93.4167 730.85 93.803 730.528 94.1364C730.206 94.4659 729.808 94.7235 729.335 94.9091C728.861 95.0909 728.329 95.1818 727.738 95.1818ZM734.732 89.75V95H733.391V86.2727H734.687V87.6364H734.8C735.005 87.1932 735.316 86.8371 735.732 86.5682C736.149 86.2955 736.687 86.1591 737.346 86.1591C737.937 86.1591 738.454 86.2803 738.897 86.5227C739.34 86.7614 739.685 87.125 739.931 87.6136C740.177 88.0985 740.3 88.7121 740.3 89.4545V95H738.96V89.5455C738.96 88.8598 738.781 88.3258 738.425 87.9432C738.069 87.5568 737.581 87.3636 736.96 87.3636C736.531 87.3636 736.149 87.4564 735.812 87.642C735.478 87.8277 735.215 88.0985 735.022 88.4545C734.829 88.8106 734.732 89.2424 734.732 89.75ZM751.046 86.2727V87.4091H746.523V86.2727H751.046ZM747.842 84.1818H749.183V92.5C749.183 92.8788 749.237 93.1629 749.347 93.3523C749.461 93.5379 749.605 93.6629 749.779 93.7273C749.957 93.7879 750.145 93.8182 750.342 93.8182C750.489 93.8182 750.611 93.8106 750.705 93.7955C750.8 93.7765 750.876 93.7614 750.933 93.75L751.205 94.9545C751.114 94.9886 750.987 95.0227 750.825 95.0568C750.662 95.0947 750.455 95.1136 750.205 95.1136C749.826 95.1136 749.455 95.0322 749.092 94.8693C748.732 94.7064 748.433 94.4583 748.194 94.125C747.959 93.7917 747.842 93.3712 747.842 92.8636V84.1818ZM754.592 89.75V95H753.251V83.3636H754.592V87.6364H754.705C754.91 87.1856 755.217 86.8277 755.626 86.5625C756.039 86.2936 756.588 86.1591 757.273 86.1591C757.868 86.1591 758.389 86.2784 758.836 86.517C759.283 86.7519 759.629 87.1136 759.876 87.6023C760.126 88.0871 760.251 88.7045 760.251 89.4545V95H758.91V89.5455C758.91 88.8523 758.73 88.3163 758.37 87.9375C758.014 87.5549 757.52 87.3636 756.887 87.3636C756.448 87.3636 756.054 87.4564 755.705 87.642C755.361 87.8277 755.088 88.0985 754.887 88.4545C754.69 88.8106 754.592 89.2424 754.592 89.75ZM766.363 95.1818C765.522 95.1818 764.797 94.9962 764.187 94.625C763.581 94.25 763.113 93.7273 762.783 93.0568C762.458 92.3826 762.295 91.5985 762.295 90.7045C762.295 89.8106 762.458 89.0227 762.783 88.3409C763.113 87.6553 763.571 87.1212 764.158 86.7386C764.749 86.3523 765.439 86.1591 766.227 86.1591C766.681 86.1591 767.13 86.2348 767.573 86.3864C768.016 86.5379 768.42 86.7841 768.783 87.125C769.147 87.4621 769.437 87.9091 769.653 88.4659C769.869 89.0227 769.977 89.7083 769.977 90.5227V91.0909H763.249V89.9318H768.613C768.613 89.4394 768.514 89 768.317 88.6136C768.124 88.2273 767.848 87.9223 767.488 87.6989C767.132 87.4754 766.711 87.3636 766.227 87.3636C765.692 87.3636 765.23 87.4962 764.84 87.7614C764.454 88.0227 764.156 88.3636 763.948 88.7841C763.74 89.2045 763.636 89.6553 763.636 90.1364V90.9091C763.636 91.5682 763.749 92.1269 763.977 92.5852C764.208 93.0398 764.528 93.3864 764.937 93.625C765.346 93.8598 765.821 93.9773 766.363 93.9773C766.715 93.9773 767.033 93.928 767.317 93.8295C767.605 93.7273 767.853 93.5758 768.062 93.375C768.27 93.1705 768.431 92.9167 768.545 92.6136L769.84 92.9773C769.704 93.4167 769.475 93.803 769.153 94.1364C768.831 94.4659 768.433 94.7235 767.96 94.9091C767.486 95.0909 766.954 95.1818 766.363 95.1818Z" fill="#4F4F4F"/>
<path d="M149.867 39.8438C150.695 39.8438 151.492 39.7422 152.258 39.5391C152.68 39.4297 153.219 39.2344 153.875 38.9531L150.383 35.625L154.109 31.7344L157.602 35.0625C158.148 33.9375 158.531 32.9531 158.75 32.1094C159.094 30.8438 159.266 29.3672 159.266 27.6797C159.266 23.8047 158.469 20.8125 156.875 18.7031C155.297 16.5781 152.984 15.5156 149.938 15.5156C147.078 15.5156 144.797 16.5312 143.094 18.5625C141.391 20.5938 140.539 23.6328 140.539 27.6797C140.539 32.4141 141.758 35.8047 144.195 37.8516C145.773 39.1797 147.664 39.8438 149.867 39.8438ZM166.484 27.1641C166.484 30.2422 166.109 32.8203 165.359 34.8984C164.75 36.8828 163.852 38.5312 162.664 39.8438L166.648 43.5703L162.875 47.5078L158.703 43.5703C157.438 44.3359 156.344 44.875 155.422 45.1875C153.875 45.7031 152.023 45.9609 149.867 45.9609C145.367 45.9609 141.648 44.6172 138.711 41.9297C135.148 38.6953 133.367 33.9453 133.367 27.6797C133.367 21.3672 135.195 16.5938 138.852 13.3594C141.836 10.7187 145.547 9.39844 149.984 9.39844C154.453 9.39844 158.203 10.7969 161.234 13.5938C164.734 16.8281 166.484 21.3516 166.484 27.1641ZM178.133 19.4531V34.8516C178.133 36.3047 178.305 37.3984 178.648 38.1328C179.258 39.4297 180.453 40.0781 182.234 40.0781C184.516 40.0781 186.078 39.1562 186.922 37.3125C187.359 36.3125 187.578 34.9922 187.578 33.3516V19.4531H194.352V45H187.859V41.3906C187.797 41.4688 187.641 41.7031 187.391 42.0938C187.141 42.4844 186.844 42.8281 186.5 43.125C185.453 44.0625 184.438 44.7031 183.453 45.0469C182.484 45.3906 181.344 45.5625 180.031 45.5625C176.25 45.5625 173.703 44.2031 172.391 41.4844C171.656 39.9844 171.289 37.7734 171.289 34.8516V19.4531H178.133ZM210.898 24.2812C209.352 24.2812 208.148 24.7656 207.289 25.7344C206.445 26.7031 205.914 28.0156 205.695 29.6719H216.078C215.969 27.9062 215.43 26.5703 214.461 25.6641C213.508 24.7422 212.32 24.2812 210.898 24.2812ZM210.898 18.7734C213.023 18.7734 214.938 19.1719 216.641 19.9688C218.344 20.7656 219.75 22.0234 220.859 23.7422C221.859 25.2578 222.508 27.0156 222.805 29.0156C222.977 30.1875 223.047 31.875 223.016 34.0781H205.531C205.625 36.6406 206.43 38.4375 207.945 39.4688C208.867 40.1094 209.977 40.4297 211.273 40.4297C212.648 40.4297 213.766 40.0391 214.625 39.2578C215.094 38.8359 215.508 38.25 215.867 37.5H222.688C222.516 39.0156 221.727 40.5547 220.32 42.1172C218.133 44.6016 215.07 45.8438 211.133 45.8438C207.883 45.8438 205.016 44.7969 202.531 42.7031C200.047 40.6094 198.805 37.2031 198.805 32.4844C198.805 28.0625 199.922 24.6719 202.156 22.3125C204.406 19.9531 207.32 18.7734 210.898 18.7734ZM232.742 36.8438C232.883 38.0312 233.188 38.875 233.656 39.375C234.484 40.2656 236.016 40.7109 238.25 40.7109C239.562 40.7109 240.602 40.5156 241.367 40.125C242.148 39.7344 242.539 39.1484 242.539 38.3672C242.539 37.6172 242.227 37.0469 241.602 36.6562C240.977 36.2656 238.656 35.5938 234.641 34.6406C231.75 33.9219 229.711 33.0234 228.523 31.9453C227.336 30.8828 226.742 29.3516 226.742 27.3516C226.742 24.9922 227.664 22.9688 229.508 21.2812C231.367 19.5781 233.977 18.7266 237.336 18.7266C240.523 18.7266 243.117 19.3672 245.117 20.6484C247.133 21.9141 248.289 24.1094 248.586 27.2344H241.906C241.812 26.375 241.57 25.6953 241.18 25.1953C240.445 24.2891 239.195 23.8359 237.43 23.8359C235.977 23.8359 234.938 24.0625 234.312 24.5156C233.703 24.9688 233.398 25.5 233.398 26.1094C233.398 26.875 233.727 27.4297 234.383 27.7734C235.039 28.1328 237.359 28.75 241.344 29.625C244 30.25 245.992 31.1953 247.32 32.4609C248.633 33.7422 249.289 35.3438 249.289 37.2656C249.289 39.7969 248.344 41.8672 246.453 43.4766C244.578 45.0703 241.672 45.8672 237.734 45.8672C233.719 45.8672 230.75 45.0234 228.828 43.3359C226.922 41.6328 225.969 39.4688 225.969 36.8438H232.742ZM251.633 24.4453V19.6875H255.195V12.5625H261.805V19.6875H265.953V24.4453H261.805V37.9453C261.805 38.9922 261.938 39.6484 262.203 39.9141C262.469 40.1641 263.281 40.2891 264.641 40.2891C264.844 40.2891 265.055 40.2891 265.273 40.2891C265.508 40.2734 265.734 40.2578 265.953 40.2422V45.2344L262.789 45.3516C259.633 45.4609 257.477 44.9141 256.32 43.7109C255.57 42.9453 255.195 41.7656 255.195 40.1719V24.4453H251.633ZM277.109 16.4062H270.336V10.2422H277.109V16.4062ZM270.336 19.4531H277.109V45H270.336V19.4531ZM295.062 40.2891C297.016 40.2891 298.516 39.5938 299.562 38.2031C300.609 36.8125 301.133 34.8359 301.133 32.2734C301.133 29.7109 300.609 27.7422 299.562 26.3672C298.516 24.9766 297.016 24.2812 295.062 24.2812C293.109 24.2812 291.602 24.9766 290.539 26.3672C289.492 27.7422 288.969 29.7109 288.969 32.2734C288.969 34.8359 289.492 36.8125 290.539 38.2031C291.602 39.5938 293.109 40.2891 295.062 40.2891ZM308.141 32.2734C308.141 36.0234 307.062 39.2344 304.906 41.9062C302.75 44.5625 299.477 45.8906 295.086 45.8906C290.695 45.8906 287.422 44.5625 285.266 41.9062C283.109 39.2344 282.031 36.0234 282.031 32.2734C282.031 28.5859 283.109 25.3906 285.266 22.6875C287.422 19.9844 290.695 18.6328 295.086 18.6328C299.477 18.6328 302.75 19.9844 304.906 22.6875C307.062 25.3906 308.141 28.5859 308.141 32.2734ZM327.102 18.8438C329.742 18.8438 331.898 19.5391 333.57 20.9297C335.258 22.3047 336.102 24.5938 336.102 27.7969V45H329.258V29.4609C329.258 28.1172 329.078 27.0859 328.719 26.3672C328.062 25.0547 326.812 24.3984 324.969 24.3984C322.703 24.3984 321.148 25.3594 320.305 27.2812C319.867 28.2969 319.648 29.5938 319.648 31.1719V45H312.992V19.5H319.438V23.2266C320.297 21.9141 321.109 20.9688 321.875 20.3906C323.25 19.3594 324.992 18.8438 327.102 18.8438ZM347.492 36.8438C347.633 38.0312 347.938 38.875 348.406 39.375C349.234 40.2656 350.766 40.7109 353 40.7109C354.312 40.7109 355.352 40.5156 356.117 40.125C356.898 39.7344 357.289 39.1484 357.289 38.3672C357.289 37.6172 356.977 37.0469 356.352 36.6562C355.727 36.2656 353.406 35.5938 349.391 34.6406C346.5 33.9219 344.461 33.0234 343.273 31.9453C342.086 30.8828 341.492 29.3516 341.492 27.3516C341.492 24.9922 342.414 22.9688 344.258 21.2812C346.117 19.5781 348.727 18.7266 352.086 18.7266C355.273 18.7266 357.867 19.3672 359.867 20.6484C361.883 21.9141 363.039 24.1094 363.336 27.2344H356.656C356.562 26.375 356.32 25.6953 355.93 25.1953C355.195 24.2891 353.945 23.8359 352.18 23.8359C350.727 23.8359 349.688 24.0625 349.062 24.5156C348.453 24.9688 348.148 25.5 348.148 26.1094C348.148 26.875 348.477 27.4297 349.133 27.7734C349.789 28.1328 352.109 28.75 356.094 29.625C358.75 30.25 360.742 31.1953 362.07 32.4609C363.383 33.7422 364.039 35.3438 364.039 37.2656C364.039 39.7969 363.094 41.8672 361.203 43.4766C359.328 45.0703 356.422 45.8672 352.484 45.8672C348.469 45.8672 345.5 45.0234 343.578 43.3359C341.672 41.6328 340.719 39.4688 340.719 36.8438H347.492ZM382.906 10.4531H390.125V38.7891H407.234V45H382.906V10.4531ZM423.172 40.2891C425.125 40.2891 426.625 39.5938 427.672 38.2031C428.719 36.8125 429.242 34.8359 429.242 32.2734C429.242 29.7109 428.719 27.7422 427.672 26.3672C426.625 24.9766 425.125 24.2812 423.172 24.2812C421.219 24.2812 419.711 24.9766 418.648 26.3672C417.602 27.7422 417.078 29.7109 417.078 32.2734C417.078 34.8359 417.602 36.8125 418.648 38.2031C419.711 39.5938 421.219 40.2891 423.172 40.2891ZM436.25 32.2734C436.25 36.0234 435.172 39.2344 433.016 41.9062C430.859 44.5625 427.586 45.8906 423.195 45.8906C418.805 45.8906 415.531 44.5625 413.375 41.9062C411.219 39.2344 410.141 36.0234 410.141 32.2734C410.141 28.5859 411.219 25.3906 413.375 22.6875C415.531 19.9844 418.805 18.6328 423.195 18.6328C427.586 18.6328 430.859 19.9844 433.016 22.6875C435.172 25.3906 436.25 28.5859 436.25 32.2734ZM452.516 40.2891C454.469 40.2891 455.969 39.5938 457.016 38.2031C458.062 36.8125 458.586 34.8359 458.586 32.2734C458.586 29.7109 458.062 27.7422 457.016 26.3672C455.969 24.9766 454.469 24.2812 452.516 24.2812C450.562 24.2812 449.055 24.9766 447.992 26.3672C446.945 27.7422 446.422 29.7109 446.422 32.2734C446.422 34.8359 446.945 36.8125 447.992 38.2031C449.055 39.5938 450.562 40.2891 452.516 40.2891ZM465.594 32.2734C465.594 36.0234 464.516 39.2344 462.359 41.9062C460.203 44.5625 456.93 45.8906 452.539 45.8906C448.148 45.8906 444.875 44.5625 442.719 41.9062C440.562 39.2344 439.484 36.0234 439.484 32.2734C439.484 28.5859 440.562 25.3906 442.719 22.6875C444.875 19.9844 448.148 18.6328 452.539 18.6328C456.93 18.6328 460.203 19.9844 462.359 22.6875C464.516 25.3906 465.594 28.5859 465.594 32.2734ZM470.328 10.5703H476.891V29.1797L485.211 19.5703H493.484L484.555 29.3438L493.836 45H485.773L479.656 34.0781L476.891 36.9609V45H470.328V10.5703ZM502.32 36.8438C502.461 38.0312 502.766 38.875 503.234 39.375C504.062 40.2656 505.594 40.7109 507.828 40.7109C509.141 40.7109 510.18 40.5156 510.945 40.125C511.727 39.7344 512.117 39.1484 512.117 38.3672C512.117 37.6172 511.805 37.0469 511.18 36.6562C510.555 36.2656 508.234 35.5938 504.219 34.6406C501.328 33.9219 499.289 33.0234 498.102 31.9453C496.914 30.8828 496.32 29.3516 496.32 27.3516C496.32 24.9922 497.242 22.9688 499.086 21.2812C500.945 19.5781 503.555 18.7266 506.914 18.7266C510.102 18.7266 512.695 19.3672 514.695 20.6484C516.711 21.9141 517.867 24.1094 518.164 27.2344H511.484C511.391 26.375 511.148 25.6953 510.758 25.1953C510.023 24.2891 508.773 23.8359 507.008 23.8359C505.555 23.8359 504.516 24.0625 503.891 24.5156C503.281 24.9688 502.977 25.5 502.977 26.1094C502.977 26.875 503.305 27.4297 503.961 27.7734C504.617 28.1328 506.938 28.75 510.922 29.625C513.578 30.25 515.57 31.1953 516.898 32.4609C518.211 33.7422 518.867 35.3438 518.867 37.2656C518.867 39.7969 517.922 41.8672 516.031 43.4766C514.156 45.0703 511.25 45.8672 507.312 45.8672C503.297 45.8672 500.328 45.0234 498.406 43.3359C496.5 41.6328 495.547 39.4688 495.547 36.8438H502.32ZM537.688 45V10.4531H544.836V23.625H558.336V10.4531H565.508V45H558.336V29.5781H544.836V45H537.688ZM581.961 24.2812C580.414 24.2812 579.211 24.7656 578.352 25.7344C577.508 26.7031 576.977 28.0156 576.758 29.6719H587.141C587.031 27.9062 586.492 26.5703 585.523 25.6641C584.57 24.7422 583.383 24.2812 581.961 24.2812ZM581.961 18.7734C584.086 18.7734 586 19.1719 587.703 19.9688C589.406 20.7656 590.812 22.0234 591.922 23.7422C592.922 25.2578 593.57 27.0156 593.867 29.0156C594.039 30.1875 594.109 31.875 594.078 34.0781H576.594C576.688 36.6406 577.492 38.4375 579.008 39.4688C579.93 40.1094 581.039 40.4297 582.336 40.4297C583.711 40.4297 584.828 40.0391 585.688 39.2578C586.156 38.8359 586.57 38.25 586.93 37.5H593.75C593.578 39.0156 592.789 40.5547 591.383 42.1172C589.195 44.6016 586.133 45.8438 582.195 45.8438C578.945 45.8438 576.078 44.7969 573.594 42.7031C571.109 40.6094 569.867 37.2031 569.867 32.4844C569.867 28.0625 570.984 24.6719 573.219 22.3125C575.469 19.9531 578.383 18.7734 581.961 18.7734ZM612.477 18.8438C612.602 18.8438 612.703 18.8516 612.781 18.8672C612.875 18.8672 613.07 18.875 613.367 18.8906V25.7344C612.945 25.6875 612.57 25.6562 612.242 25.6406C611.914 25.625 611.648 25.6172 611.445 25.6172C608.758 25.6172 606.953 26.4922 606.031 28.2422C605.516 29.2266 605.258 30.7422 605.258 32.7891V45H598.531V19.4531H604.906V23.9062C605.938 22.2031 606.836 21.0391 607.602 20.4141C608.852 19.3672 610.477 18.8438 612.477 18.8438ZM627.383 24.2812C625.836 24.2812 624.633 24.7656 623.773 25.7344C622.93 26.7031 622.398 28.0156 622.18 29.6719H632.562C632.453 27.9062 631.914 26.5703 630.945 25.6641C629.992 24.7422 628.805 24.2812 627.383 24.2812ZM627.383 18.7734C629.508 18.7734 631.422 19.1719 633.125 19.9688C634.828 20.7656 636.234 22.0234 637.344 23.7422C638.344 25.2578 638.992 27.0156 639.289 29.0156C639.461 30.1875 639.531 31.875 639.5 34.0781H622.016C622.109 36.6406 622.914 38.4375 624.43 39.4688C625.352 40.1094 626.461 40.4297 627.758 40.4297C629.133 40.4297 630.25 40.0391 631.109 39.2578C631.578 38.8359 631.992 38.25 632.352 37.5H639.172C639 39.0156 638.211 40.5547 636.805 42.1172C634.617 44.6016 631.555 45.8438 627.617 45.8438C624.367 45.8438 621.5 44.7969 619.016 42.7031C616.531 40.6094 615.289 37.2031 615.289 32.4844C615.289 28.0625 616.406 24.6719 618.641 22.3125C620.891 19.9531 623.805 18.7734 627.383 18.7734Z" fill="#333333"/>
</svg>
