<svg width="202" height="17" viewBox="0 0 202 17" fill="none" xmlns="http://www.w3.org/2000/svg">
<g opacity="0.7">
<path d="M1.49694 13H7.27677V11.9844H2.64182V8.77131H6.90745V7.75568H2.64182V4.56108H7.2029V3.54545H1.49694V13ZM10.2082 8.73438C10.2082 7.49716 10.9746 6.79545 12.0179 6.79545C13.0289 6.79545 13.6429 7.45561 13.6429 8.56818V13H14.7324V8.49432C14.7324 6.68466 13.7675 5.81676 12.3318 5.81676C11.2608 5.81676 10.596 6.29688 10.2636 7.01705H10.1713V5.90909H9.11874V13H10.2082V8.73438ZM19.5854 15.8068C21.2843 15.8068 22.6508 15.0312 22.6508 13.2031V5.90909H21.5982V7.03551H21.4874C21.2474 6.66619 20.8042 5.81676 19.4193 5.81676C17.6281 5.81676 16.3908 7.23864 16.3908 9.41761C16.3908 11.6335 17.6835 12.8892 19.4008 12.8892C20.7857 12.8892 21.2289 12.0767 21.469 11.6889H21.5613V13.1293C21.5613 14.3111 20.7303 14.8466 19.5854 14.8466C18.2975 14.8466 17.845 14.168 17.5542 13.7756L16.6863 14.3849C17.1295 15.1282 18.002 15.8068 19.5854 15.8068ZM19.5485 11.9105C18.182 11.9105 17.4803 10.8764 17.4803 9.39915C17.4803 7.95881 18.1636 6.79545 19.5485 6.79545C20.8781 6.79545 21.5798 7.86648 21.5798 9.39915C21.5798 10.9688 20.8596 11.9105 19.5485 11.9105Z" fill="white"/>
<path d="M37 6.75L33.5 10.25L30 6.75" stroke="white" stroke-linecap="round" stroke-linejoin="round"/>
<path d="M62.3104 13H63.4553V8.77131H67.5547V7.75568H63.4553V4.56108H67.9794V3.54545H62.3104V13ZM71.8792 13.1662C73.1164 13.1662 73.7627 12.5014 73.9843 12.0398H74.0397V13H75.1292V8.32812C75.1292 6.07528 73.4119 5.81676 72.5071 5.81676C71.436 5.81676 70.2173 6.18608 69.6633 7.47869L70.6974 7.84801C70.9375 7.33097 71.5053 6.77699 72.544 6.77699C73.5458 6.77699 74.0397 7.30788 74.0397 8.21733V8.25426C74.0397 8.78054 73.5042 8.73438 72.2116 8.90057C70.8959 9.07138 69.4602 9.36222 69.4602 10.9872C69.4602 12.3722 70.5312 13.1662 71.8792 13.1662ZM72.0454 12.1875C71.1775 12.1875 70.5497 11.7997 70.5497 11.0426C70.5497 10.2116 71.3068 9.95312 72.1562 9.84233C72.6179 9.78693 73.8551 9.65767 74.0397 9.43608V10.4332C74.0397 11.3196 73.338 12.1875 72.0454 12.1875ZM83.0453 15.6591V5.90909H81.9928V7.03551H81.8635C81.6234 6.66619 81.1987 5.81676 79.8138 5.81676C78.0226 5.81676 76.7854 7.23864 76.7854 9.47301C76.7854 11.7259 78.0226 13.1477 79.7953 13.1477C81.1618 13.1477 81.6234 12.2983 81.8635 11.9105H81.9558V15.6591H83.0453ZM81.9743 9.45455C81.9743 11.0611 81.2541 12.169 79.943 12.169C78.5766 12.169 77.8749 10.9688 77.8749 9.45455C77.8749 7.95881 78.5581 6.79545 79.943 6.79545C81.2726 6.79545 81.9743 7.86648 81.9743 9.45455ZM90.0624 7.49716C89.7207 6.49077 88.9544 5.81676 87.551 5.81676C86.0553 5.81676 84.9473 6.66619 84.9473 7.86648C84.9473 8.84517 85.529 9.50071 86.8308 9.8054L88.0127 10.0824C88.7282 10.2486 89.0652 10.5902 89.0652 11.0795C89.0652 11.6889 88.4189 12.1875 87.4033 12.1875C86.5123 12.1875 85.9537 11.8043 85.7598 11.0426L84.7257 11.3011C84.9796 12.506 85.9722 13.1477 87.4217 13.1477C89.0698 13.1477 90.1916 12.2475 90.1916 11.0241C90.1916 10.0362 89.573 9.413 88.3081 9.10369L87.2555 8.84517C86.4153 8.63743 86.0368 8.35582 86.0368 7.81108C86.0368 7.2017 86.6831 6.75852 87.551 6.75852C88.502 6.75852 88.8944 7.2848 89.0837 7.77415L90.0624 7.49716Z" fill="white"/>
<g opacity="0.7" clip-path="url(#clip0_1_872)">
<path d="M123 14.6667C126.682 14.6667 129.667 11.6819 129.667 8.00004C129.667 4.31814 126.682 1.33337 123 1.33337C119.318 1.33337 116.333 4.31814 116.333 8.00004C116.333 11.6819 119.318 14.6667 123 14.6667Z" stroke="white" stroke-linecap="round" stroke-linejoin="round"/>
<path d="M123 5.33337V8.00004" stroke="white" stroke-linecap="round" stroke-linejoin="round"/>
<path d="M123 10.6666H123.006" stroke="white" stroke-linecap="round" stroke-linejoin="round"/>
</g>
<path d="M145.718 3.54545H144.592V10.9872H144.499L139.329 3.54545H138.221V13H139.366V5.5767H139.458L144.61 13H145.718V3.54545ZM150.834 13.1477C152.275 13.1477 153.327 12.4276 153.66 11.3565L152.607 11.0611C152.33 11.7997 151.688 12.169 150.834 12.169C149.556 12.169 148.674 11.3427 148.623 9.82386H153.771V9.36222C153.771 6.72159 152.201 5.81676 150.724 5.81676C148.803 5.81676 147.529 7.33097 147.529 9.50994C147.529 11.6889 148.785 13.1477 150.834 13.1477ZM148.623 8.8821C148.697 7.77876 149.477 6.79545 150.724 6.79545C151.905 6.79545 152.663 7.68182 152.663 8.8821H148.623ZM158.401 13.1477C159.841 13.1477 160.894 12.4276 161.226 11.3565L160.174 11.0611C159.897 11.7997 159.255 12.169 158.401 12.169C157.122 12.169 156.24 11.3427 156.19 9.82386H161.337V9.36222C161.337 6.72159 159.767 5.81676 158.29 5.81676C156.37 5.81676 155.095 7.33097 155.095 9.50994C155.095 11.6889 156.351 13.1477 158.401 13.1477ZM156.19 8.8821C156.263 7.77876 157.044 6.79545 158.29 6.79545C159.472 6.79545 160.229 7.68182 160.229 8.8821H156.19ZM165.672 13.1477C167.038 13.1477 167.5 12.2983 167.74 11.9105H167.869V13H168.922V3.54545H167.832V7.03551H167.74C167.5 6.66619 167.075 5.81676 165.69 5.81676C163.899 5.81676 162.662 7.23864 162.662 9.47301C162.662 11.7259 163.899 13.1477 165.672 13.1477ZM165.82 12.169C164.453 12.169 163.751 10.9688 163.751 9.45455C163.751 7.95881 164.435 6.79545 165.82 6.79545C167.149 6.79545 167.851 7.86648 167.851 9.45455C167.851 11.0611 167.131 12.169 165.82 12.169ZM174.872 13H176.017V8.77131H181.059V13H182.203V3.54545H181.059V7.75568H176.017V3.54545H174.872V13ZM187.321 13.1477C188.761 13.1477 189.814 12.4276 190.146 11.3565L189.093 11.0611C188.816 11.7997 188.175 12.169 187.321 12.169C186.042 12.169 185.16 11.3427 185.109 9.82386H190.257V9.36222C190.257 6.72159 188.687 5.81676 187.21 5.81676C185.29 5.81676 184.015 7.33097 184.015 9.50994C184.015 11.6889 185.271 13.1477 187.321 13.1477ZM185.109 8.8821C185.183 7.77876 185.964 6.79545 187.21 6.79545C188.392 6.79545 189.149 7.68182 189.149 8.8821H185.109ZM193.004 3.54545H191.914V13H193.004V3.54545ZM194.999 15.6591H196.089V11.9105H196.181C196.421 12.2983 196.883 13.1477 198.249 13.1477C200.022 13.1477 201.259 11.7259 201.259 9.47301C201.259 7.23864 200.022 5.81676 198.231 5.81676C196.846 5.81676 196.421 6.66619 196.181 7.03551H196.052V5.90909H194.999V15.6591ZM196.07 9.45455C196.07 7.86648 196.772 6.79545 198.101 6.79545C199.486 6.79545 200.17 7.95881 200.17 9.45455C200.17 10.9688 199.468 12.169 198.101 12.169C196.79 12.169 196.07 11.0611 196.07 9.45455Z" fill="white"/>
</g>
<defs>
<clipPath id="clip0_1_872">
<rect width="16" height="16" fill="white" transform="translate(115)"/>
</clipPath>
</defs>
</svg>
