<svg width="329" height="31" viewBox="0 0 329 31" fill="none" xmlns="http://www.w3.org/2000/svg">
<path d="M22.0909 12.3636C22.0909 14.8712 21.6212 17.0189 20.6818 18.8068C19.75 20.5871 18.4773 21.9508 16.8636 22.8977C15.2576 23.8447 13.4356 24.3182 11.3977 24.3182C9.35985 24.3182 7.53409 23.8447 5.92045 22.8977C4.31439 21.9432 3.04167 20.5758 2.10227 18.7955C1.17045 17.0076 0.704545 14.8636 0.704545 12.3636C0.704545 9.85606 1.17045 7.71212 2.10227 5.93182C3.04167 4.14394 4.31439 2.77651 5.92045 1.82954C7.53409 0.882575 9.35985 0.40909 11.3977 0.40909C13.4356 0.40909 15.2576 0.882575 16.8636 1.82954C18.4773 2.77651 19.75 4.14394 20.6818 5.93182C21.6212 7.71212 22.0909 9.85606 22.0909 12.3636ZM17.8523 12.3636C17.8523 10.5985 17.5758 9.10985 17.0227 7.89773C16.4773 6.67803 15.7197 5.75758 14.75 5.13636C13.7803 4.50758 12.6629 4.19318 11.3977 4.19318C10.1326 4.19318 9.01515 4.50758 8.04545 5.13636C7.07576 5.75758 6.31439 6.67803 5.76136 7.89773C5.21591 9.10985 4.94318 10.5985 4.94318 12.3636C4.94318 14.1288 5.21591 15.6212 5.76136 16.8409C6.31439 18.053 7.07576 18.9735 8.04545 19.6023C9.01515 20.2235 10.1326 20.5341 11.3977 20.5341C12.6629 20.5341 13.7803 20.2235 14.75 19.6023C15.7197 18.9735 16.4773 18.053 17.0227 16.8409C17.5758 15.6212 17.8523 14.1288 17.8523 12.3636ZM37.0199 16.6591V6.54545H41.1335V24H37.1449V20.8977H36.9631C36.5691 21.875 35.9214 22.6742 35.0199 23.2955C34.1259 23.9167 33.0237 24.2273 31.7131 24.2273C30.5691 24.2273 29.5578 23.9735 28.679 23.4659C27.8078 22.9508 27.1259 22.2045 26.6335 21.2273C26.1411 20.2424 25.8949 19.053 25.8949 17.6591V6.54545H30.0085V17.0227C30.0085 18.1288 30.3116 19.0076 30.9176 19.6591C31.5237 20.3106 32.3191 20.6364 33.304 20.6364C33.91 20.6364 34.4972 20.4886 35.0653 20.1932C35.6335 19.8977 36.0994 19.4583 36.4631 18.875C36.8343 18.2841 37.0199 17.5455 37.0199 16.6591ZM45.3636 24V6.54545H49.3523V9.45455H49.5341C49.8523 8.44697 50.3977 7.67045 51.1705 7.125C51.9508 6.57197 52.8409 6.29545 53.8409 6.29545C54.0682 6.29545 54.322 6.30682 54.6023 6.32954C54.8902 6.3447 55.1288 6.37121 55.3182 6.40909V10.1932C55.1439 10.1326 54.8674 10.0795 54.4886 10.0341C54.1174 9.98106 53.7576 9.95455 53.4091 9.95455C52.6591 9.95455 51.9848 10.1174 51.3864 10.4432C50.7955 10.7614 50.3295 11.2045 49.9886 11.7727C49.6477 12.3409 49.4773 12.9962 49.4773 13.7386V24H45.3636ZM66.1705 24V0.727272H74.8977C76.6856 0.727272 78.1856 1.06061 79.3977 1.72727C80.6174 2.39394 81.5379 3.31061 82.1591 4.47727C82.7879 5.63636 83.1023 6.95454 83.1023 8.43182C83.1023 9.92424 82.7879 11.25 82.1591 12.4091C81.5303 13.5682 80.6023 14.4811 79.375 15.1477C78.1477 15.8068 76.6364 16.1364 74.8409 16.1364H69.0568V12.6705H74.2727C75.3182 12.6705 76.1742 12.4886 76.8409 12.125C77.5076 11.7614 78 11.2614 78.3182 10.625C78.6439 9.98864 78.8068 9.25758 78.8068 8.43182C78.8068 7.60606 78.6439 6.87879 78.3182 6.25C78 5.62121 77.5038 5.13258 76.8295 4.78409C76.1629 4.42803 75.303 4.25 74.25 4.25H70.3864V24H66.1705ZM93.946 24.3409C92.2415 24.3409 90.7642 23.9659 89.5142 23.2159C88.2642 22.4659 87.2945 21.4167 86.6051 20.0682C85.9233 18.7197 85.5824 17.1439 85.5824 15.3409C85.5824 13.5379 85.9233 11.9583 86.6051 10.6023C87.2945 9.24621 88.2642 8.19318 89.5142 7.44318C90.7642 6.69318 92.2415 6.31818 93.946 6.31818C95.6506 6.31818 97.1278 6.69318 98.3778 7.44318C99.6278 8.19318 100.594 9.24621 101.276 10.6023C101.965 11.9583 102.31 13.5379 102.31 15.3409C102.31 17.1439 101.965 18.7197 101.276 20.0682C100.594 21.4167 99.6278 22.4659 98.3778 23.2159C97.1278 23.9659 95.6506 24.3409 93.946 24.3409ZM93.9688 21.0455C94.893 21.0455 95.6657 20.7917 96.2869 20.2841C96.9081 19.7689 97.3703 19.0795 97.6733 18.2159C97.9839 17.3523 98.1392 16.3902 98.1392 15.3295C98.1392 14.2614 97.9839 13.2955 97.6733 12.4318C97.3703 11.5606 96.9081 10.8674 96.2869 10.3523C95.6657 9.83712 94.893 9.57955 93.9688 9.57955C93.0218 9.57955 92.2339 9.83712 91.6051 10.3523C90.9839 10.8674 90.518 11.5606 90.2074 12.4318C89.9044 13.2955 89.7528 14.2614 89.7528 15.3295C89.7528 16.3902 89.9044 17.3523 90.2074 18.2159C90.518 19.0795 90.9839 19.7689 91.6051 20.2841C92.2339 20.7917 93.0218 21.0455 93.9688 21.0455ZM105.801 30.5455V6.54545H109.847V9.43182H110.085C110.297 9.00758 110.597 8.55682 110.983 8.07955C111.369 7.5947 111.892 7.18182 112.551 6.84091C113.21 6.49242 114.051 6.31818 115.074 6.31818C116.422 6.31818 117.638 6.66288 118.722 7.35227C119.813 8.03409 120.676 9.04545 121.312 10.3864C121.956 11.7197 122.278 13.3561 122.278 15.2955C122.278 17.2121 121.964 18.8409 121.335 20.1818C120.706 21.5227 119.85 22.5455 118.767 23.25C117.684 23.9545 116.456 24.3068 115.085 24.3068C114.085 24.3068 113.256 24.1402 112.597 23.8068C111.938 23.4735 111.407 23.072 111.006 22.6023C110.612 22.125 110.305 21.6742 110.085 21.25H109.915V30.5455H105.801ZM109.835 15.2727C109.835 16.4015 109.994 17.3902 110.312 18.2386C110.638 19.0871 111.104 19.75 111.71 20.2273C112.324 20.697 113.066 20.9318 113.938 20.9318C114.847 20.9318 115.608 20.6894 116.222 20.2045C116.835 19.7121 117.297 19.0417 117.608 18.1932C117.926 17.3371 118.085 16.3636 118.085 15.2727C118.085 14.1894 117.93 13.2273 117.619 12.3864C117.309 11.5455 116.847 10.8864 116.233 10.4091C115.619 9.93182 114.854 9.69318 113.938 9.69318C113.059 9.69318 112.312 9.92424 111.699 10.3864C111.085 10.8485 110.619 11.4962 110.301 12.3295C109.991 13.1629 109.835 14.1439 109.835 15.2727ZM136.926 16.6591V6.54545H141.04V24H137.051V20.8977H136.869C136.475 21.875 135.828 22.6742 134.926 23.2955C134.032 23.9167 132.93 24.2273 131.619 24.2273C130.475 24.2273 129.464 23.9735 128.585 23.4659C127.714 22.9508 127.032 22.2045 126.54 21.2273C126.047 20.2424 125.801 19.053 125.801 17.6591V6.54545H129.915V17.0227C129.915 18.1288 130.218 19.0076 130.824 19.6591C131.43 20.3106 132.225 20.6364 133.21 20.6364C133.816 20.6364 134.403 20.4886 134.972 20.1932C135.54 19.8977 136.006 19.4583 136.369 18.875C136.741 18.2841 136.926 17.5455 136.926 16.6591ZM149.384 0.727272V24H145.27V0.727272H149.384ZM158.636 24.3523C157.53 24.3523 156.534 24.1553 155.648 23.7614C154.769 23.3598 154.072 22.7689 153.557 21.9886C153.049 21.2083 152.795 20.2462 152.795 19.1023C152.795 18.1174 152.977 17.303 153.341 16.6591C153.705 16.0152 154.201 15.5 154.83 15.1136C155.458 14.7273 156.167 14.4356 156.955 14.2386C157.75 14.0341 158.572 13.8864 159.42 13.7955C160.443 13.6894 161.273 13.5947 161.909 13.5114C162.545 13.4205 163.008 13.2841 163.295 13.1023C163.591 12.9129 163.739 12.6212 163.739 12.2273V12.1591C163.739 11.303 163.485 10.6402 162.977 10.1705C162.47 9.70076 161.739 9.46591 160.784 9.46591C159.777 9.46591 158.977 9.68561 158.386 10.125C157.803 10.5644 157.409 11.0833 157.205 11.6818L153.364 11.1364C153.667 10.0758 154.167 9.18939 154.864 8.47727C155.561 7.75757 156.413 7.2197 157.42 6.86364C158.428 6.5 159.542 6.31818 160.761 6.31818C161.602 6.31818 162.439 6.41667 163.273 6.61364C164.106 6.81061 164.867 7.13636 165.557 7.59091C166.246 8.03788 166.799 8.64773 167.216 9.42045C167.64 10.1932 167.852 11.1591 167.852 12.3182V24H163.898V21.6023H163.761C163.511 22.0871 163.159 22.5417 162.705 22.9659C162.258 23.3826 161.693 23.7197 161.011 23.9773C160.337 24.2273 159.545 24.3523 158.636 24.3523ZM159.705 21.3295C160.53 21.3295 161.246 21.1667 161.852 20.8409C162.458 20.5076 162.924 20.0682 163.25 19.5227C163.583 18.9773 163.75 18.3826 163.75 17.7386V15.6818C163.621 15.7879 163.402 15.8864 163.091 15.9773C162.788 16.0682 162.447 16.1477 162.068 16.2159C161.689 16.2841 161.314 16.3447 160.943 16.3977C160.572 16.4508 160.25 16.4962 159.977 16.5341C159.364 16.6174 158.814 16.7538 158.33 16.9432C157.845 17.1326 157.462 17.3977 157.182 17.7386C156.902 18.072 156.761 18.5038 156.761 19.0341C156.761 19.7917 157.038 20.3636 157.591 20.75C158.144 21.1364 158.848 21.3295 159.705 21.3295ZM171.989 24V6.54545H175.977V9.45455H176.159C176.477 8.44697 177.023 7.67045 177.795 7.125C178.576 6.57197 179.466 6.29545 180.466 6.29545C180.693 6.29545 180.947 6.30682 181.227 6.32954C181.515 6.3447 181.754 6.37121 181.943 6.40909V10.1932C181.769 10.1326 181.492 10.0795 181.114 10.0341C180.742 9.98106 180.383 9.95455 180.034 9.95455C179.284 9.95455 178.61 10.1174 178.011 10.4432C177.42 10.7614 176.955 11.2045 176.614 11.7727C176.273 12.3409 176.102 12.9962 176.102 13.7386V24H171.989ZM192.795 24V0.727272H201.523C203.311 0.727272 204.811 1.06061 206.023 1.72727C207.242 2.39394 208.163 3.31061 208.784 4.47727C209.413 5.63636 209.727 6.95454 209.727 8.43182C209.727 9.92424 209.413 11.25 208.784 12.4091C208.155 13.5682 207.227 14.4811 206 15.1477C204.773 15.8068 203.261 16.1364 201.466 16.1364H195.682V12.6705H200.898C201.943 12.6705 202.799 12.4886 203.466 12.125C204.133 11.7614 204.625 11.2614 204.943 10.625C205.269 9.98864 205.432 9.25758 205.432 8.43182C205.432 7.60606 205.269 6.87879 204.943 6.25C204.625 5.62121 204.129 5.13258 203.455 4.78409C202.788 4.42803 201.928 4.25 200.875 4.25H197.011V24H192.795ZM213.207 24V6.54545H217.196V9.45455H217.378C217.696 8.44697 218.241 7.67045 219.014 7.125C219.795 6.57197 220.685 6.29545 221.685 6.29545C221.912 6.29545 222.166 6.30682 222.446 6.32954C222.734 6.3447 222.973 6.37121 223.162 6.40909V10.1932C222.988 10.1326 222.711 10.0795 222.332 10.0341C221.961 9.98106 221.601 9.95455 221.253 9.95455C220.503 9.95455 219.829 10.1174 219.23 10.4432C218.639 10.7614 218.173 11.2045 217.832 11.7727C217.491 12.3409 217.321 12.9962 217.321 13.7386V24H213.207ZM232.79 24.3409C231.085 24.3409 229.608 23.9659 228.358 23.2159C227.108 22.4659 226.138 21.4167 225.449 20.0682C224.767 18.7197 224.426 17.1439 224.426 15.3409C224.426 13.5379 224.767 11.9583 225.449 10.6023C226.138 9.24621 227.108 8.19318 228.358 7.44318C229.608 6.69318 231.085 6.31818 232.79 6.31818C234.494 6.31818 235.972 6.69318 237.222 7.44318C238.472 8.19318 239.438 9.24621 240.119 10.6023C240.809 11.9583 241.153 13.5379 241.153 15.3409C241.153 17.1439 240.809 18.7197 240.119 20.0682C239.438 21.4167 238.472 22.4659 237.222 23.2159C235.972 23.9659 234.494 24.3409 232.79 24.3409ZM232.812 21.0455C233.737 21.0455 234.509 20.7917 235.131 20.2841C235.752 19.7689 236.214 19.0795 236.517 18.2159C236.828 17.3523 236.983 16.3902 236.983 15.3295C236.983 14.2614 236.828 13.2955 236.517 12.4318C236.214 11.5606 235.752 10.8674 235.131 10.3523C234.509 9.83712 233.737 9.57955 232.812 9.57955C231.866 9.57955 231.078 9.83712 230.449 10.3523C229.828 10.8674 229.362 11.5606 229.051 12.4318C228.748 13.2955 228.597 14.2614 228.597 15.3295C228.597 16.3902 228.748 17.3523 229.051 18.2159C229.362 19.0795 229.828 19.7689 230.449 20.2841C231.078 20.7917 231.866 21.0455 232.812 21.0455ZM251.122 24.3068C249.751 24.3068 248.524 23.9545 247.44 23.25C246.357 22.5455 245.501 21.5227 244.872 20.1818C244.243 18.8409 243.929 17.2121 243.929 15.2955C243.929 13.3561 244.247 11.7197 244.884 10.3864C245.527 9.04545 246.395 8.03409 247.486 7.35227C248.577 6.66288 249.793 6.31818 251.134 6.31818C252.156 6.31818 252.997 6.49242 253.656 6.84091C254.315 7.18182 254.838 7.5947 255.224 8.07955C255.611 8.55682 255.91 9.00758 256.122 9.43182H256.293V0.727272H260.418V24H256.372V21.25H256.122C255.91 21.6742 255.603 22.125 255.202 22.6023C254.8 23.072 254.27 23.4735 253.611 23.8068C252.952 24.1402 252.122 24.3068 251.122 24.3068ZM252.27 20.9318C253.141 20.9318 253.884 20.697 254.497 20.2273C255.111 19.75 255.577 19.0871 255.895 18.2386C256.213 17.3902 256.372 16.4015 256.372 15.2727C256.372 14.1439 256.213 13.1629 255.895 12.3295C255.584 11.4962 255.122 10.8485 254.509 10.3864C253.902 9.92424 253.156 9.69318 252.27 9.69318C251.353 9.69318 250.588 9.93182 249.974 10.4091C249.361 10.8864 248.899 11.5455 248.588 12.3864C248.277 13.2273 248.122 14.1894 248.122 15.2727C248.122 16.3636 248.277 17.3371 248.588 18.1932C248.906 19.0417 249.372 19.7121 249.986 20.2045C250.607 20.6894 251.368 20.9318 252.27 20.9318ZM275.926 16.6591V6.54545H280.04V24H276.051V20.8977H275.869C275.475 21.875 274.828 22.6742 273.926 23.2955C273.032 23.9167 271.93 24.2273 270.619 24.2273C269.475 24.2273 268.464 23.9735 267.585 23.4659C266.714 22.9508 266.032 22.2045 265.54 21.2273C265.047 20.2424 264.801 19.053 264.801 17.6591V6.54545H268.915V17.0227C268.915 18.1288 269.218 19.0076 269.824 19.6591C270.43 20.3106 271.225 20.6364 272.21 20.6364C272.816 20.6364 273.403 20.4886 273.972 20.1932C274.54 19.8977 275.006 19.4583 275.369 18.875C275.741 18.2841 275.926 17.5455 275.926 16.6591ZM291.884 24.3409C290.141 24.3409 288.645 23.9583 287.395 23.1932C286.152 22.428 285.194 21.3712 284.52 20.0227C283.853 18.6667 283.52 17.1061 283.52 15.3409C283.52 13.5682 283.861 12.0038 284.543 10.6477C285.224 9.28409 286.187 8.22348 287.429 7.46591C288.679 6.70076 290.156 6.31818 291.861 6.31818C293.277 6.31818 294.531 6.57955 295.622 7.10227C296.721 7.61742 297.596 8.34848 298.247 9.29545C298.899 10.2348 299.27 11.3333 299.361 12.5909H295.429C295.27 11.75 294.891 11.0492 294.293 10.4886C293.702 9.92045 292.91 9.63636 291.918 9.63636C291.077 9.63636 290.338 9.86364 289.702 10.3182C289.065 10.7652 288.569 11.4091 288.213 12.25C287.865 13.0909 287.69 14.0985 287.69 15.2727C287.69 16.4621 287.865 17.4848 288.213 18.3409C288.562 19.1894 289.05 19.8447 289.679 20.3068C290.315 20.7614 291.062 20.9886 291.918 20.9886C292.524 20.9886 293.065 20.875 293.543 20.6477C294.027 20.4129 294.433 20.0758 294.759 19.6364C295.084 19.197 295.308 18.6629 295.429 18.0341H299.361C299.262 19.2689 298.899 20.3636 298.27 21.3182C297.641 22.2652 296.785 23.0076 295.702 23.5455C294.618 24.0758 293.346 24.3409 291.884 24.3409ZM311.455 6.54545V9.72727H301.42V6.54545H311.455ZM303.898 2.36364H308.011V18.75C308.011 19.303 308.095 19.7273 308.261 20.0227C308.436 20.3106 308.663 20.5076 308.943 20.6136C309.223 20.7197 309.534 20.7727 309.875 20.7727C310.133 20.7727 310.367 20.7538 310.58 20.7159C310.799 20.678 310.966 20.6439 311.08 20.6136L311.773 23.8295C311.553 23.9053 311.239 23.9886 310.83 24.0795C310.428 24.1705 309.936 24.2235 309.352 24.2386C308.322 24.2689 307.394 24.1136 306.568 23.7727C305.742 23.4242 305.087 22.8864 304.602 22.1591C304.125 21.4318 303.89 20.5227 303.898 19.4318V2.36364ZM328.44 11.1591L324.69 11.5682C324.584 11.1894 324.399 10.8333 324.134 10.5C323.876 10.1667 323.527 9.89773 323.088 9.69318C322.649 9.48864 322.111 9.38636 321.474 9.38636C320.618 9.38636 319.899 9.57197 319.315 9.94318C318.74 10.3144 318.455 10.7955 318.463 11.3864C318.455 11.8939 318.641 12.3068 319.02 12.625C319.406 12.9432 320.043 13.2045 320.929 13.4091L323.906 14.0455C325.558 14.4015 326.785 14.9659 327.588 15.7386C328.399 16.5114 328.808 17.5227 328.815 18.7727C328.808 19.8712 328.486 20.8409 327.849 21.6818C327.221 22.5152 326.346 23.1667 325.224 23.6364C324.103 24.1061 322.815 24.3409 321.361 24.3409C319.224 24.3409 317.505 23.8939 316.202 23C314.899 22.0985 314.122 20.8447 313.872 19.2386L317.884 18.8523C318.065 19.6402 318.452 20.2348 319.043 20.6364C319.634 21.0379 320.402 21.2386 321.349 21.2386C322.327 21.2386 323.111 21.0379 323.702 20.6364C324.3 20.2348 324.599 19.7386 324.599 19.1477C324.599 18.6477 324.406 18.2348 324.02 17.9091C323.641 17.5833 323.05 17.3333 322.247 17.1591L319.27 16.5341C317.596 16.1856 316.357 15.5985 315.554 14.7727C314.751 13.9394 314.353 12.8864 314.361 11.6136C314.353 10.5379 314.645 9.60606 315.236 8.81818C315.834 8.02273 316.664 7.40909 317.724 6.97727C318.793 6.53788 320.024 6.31818 321.418 6.31818C323.463 6.31818 325.073 6.75379 326.247 7.625C327.429 8.49621 328.16 9.67424 328.44 11.1591Z" fill="#272343"/>
</svg>
